<svg width="410" height="410" viewBox="0 0 410 410" fill="none" xmlns="http://www.w3.org/2000/svg">
<path d="M81.3441 351.116C151.758 392.813 265.91 392.821 336.364 351.116C406.819 309.41 406.769 241.81 336.364 200.113C265.959 158.416 151.799 158.416 81.3851 200.113C10.9717 241.81 10.9389 309.419 81.3441 351.116Z" fill="#F5F5F5"/>
<path d="M328.385 224.335C317.447 229.55 299.685 229.55 288.755 224.335C277.824 219.12 277.808 210.658 288.755 205.475C299.702 200.293 317.455 200.26 328.385 205.475C339.316 210.69 339.332 219.112 328.385 224.335Z" fill="#E0E0E0"/>
<path d="M359.324 270.091L353.805 266.934C353.805 266.934 351.157 252.338 353.133 239.784C355.921 222.138 367.934 216.053 372.296 217.808C376.659 219.563 377.692 224.786 369.836 234.979C365.162 240.998 359.16 253.716 359.324 270.091Z" fill="#6B6B6B"/>
<g opacity="0.1">
<path d="M359.324 270.091L353.805 266.934C353.805 266.934 351.157 252.338 353.133 239.784C355.921 222.138 367.934 216.053 372.296 217.808C376.659 219.563 377.692 224.786 369.836 234.979C365.162 240.998 359.16 253.716 359.324 270.091Z" fill="black"/>
</g>
<path d="M357.323 263.08H357.38C357.484 263.066 357.577 263.012 357.64 262.928C357.703 262.845 357.731 262.741 357.717 262.638C355.437 246.115 362.079 228.017 369.541 220.719C369.584 220.685 369.62 220.642 369.645 220.593C369.671 220.544 369.685 220.49 369.689 220.435C369.692 220.38 369.684 220.325 369.664 220.273C369.645 220.221 369.615 220.174 369.576 220.135C369.538 220.096 369.491 220.065 369.44 220.045C369.388 220.025 369.333 220.015 369.278 220.018C369.223 220.02 369.169 220.035 369.12 220.059C369.07 220.084 369.027 220.119 368.992 220.162C361.39 227.583 354.617 245.983 356.938 262.744C356.95 262.838 356.995 262.923 357.067 262.985C357.138 263.047 357.229 263.081 357.323 263.08Z" fill="white"/>
<path d="M374.658 278.947C375.527 279.447 377.323 278.348 378.012 277.889C379.194 277.085 380.149 275.989 380.783 274.708C381.495 273.254 381.738 271.615 381.48 270.017C381.336 269.185 381.136 268.363 380.882 267.557L380.193 265.138C379.908 264.351 379.786 263.514 379.832 262.678C380.045 261.038 381.513 259.857 382.85 258.857C384.326 257.758 385.867 256.299 385.859 254.306C385.751 252.759 385.134 251.291 384.104 250.132C383.153 248.927 382.022 247.861 381.161 246.582C380.48 245.697 380.124 244.606 380.152 243.49C380.247 242.806 380.478 242.148 380.833 241.555C381.639 240.32 382.347 239.023 382.948 237.676C383.432 236.282 383.366 234.552 382.276 233.576C381.788 233.219 381.233 232.962 380.645 232.821C380.056 232.68 379.445 232.658 378.848 232.756C377.716 232.897 376.628 233.28 375.658 233.88C372.493 235.635 370.689 239.382 367.335 240.735C365.992 241.155 364.622 241.486 363.235 241.727C362.549 241.857 361.897 242.128 361.321 242.523C360.745 242.919 360.258 243.429 359.89 244.023C358.66 246.483 360.939 249.517 360.078 252.133C359.308 254.445 357.061 255.323 355.806 257.414C355.29 258.333 355.083 259.394 355.216 260.44C355.323 262.206 355.754 263.938 356.487 265.548C357.306 267.152 358.243 268.692 359.291 270.157C359.381 270.14 374.519 278.865 374.658 278.947Z" fill="#6B6B6B"/>
<path d="M365.72 274.167C365.772 274.166 365.824 274.154 365.872 274.133C365.92 274.112 365.963 274.081 365.999 274.043C366.035 274.005 366.063 273.96 366.081 273.911C366.099 273.861 366.107 273.809 366.105 273.757C365.457 258.119 372.821 240.858 378.176 235.84C378.212 235.804 378.241 235.761 378.261 235.714C378.281 235.667 378.291 235.616 378.291 235.565C378.291 235.514 378.281 235.464 378.261 235.416C378.241 235.369 378.212 235.326 378.176 235.291C378.139 235.254 378.096 235.225 378.048 235.205C378 235.185 377.949 235.175 377.897 235.175C377.845 235.175 377.794 235.185 377.746 235.205C377.698 235.225 377.655 235.254 377.618 235.291C372.149 240.407 364.637 257.955 365.318 273.831C365.332 273.926 365.381 274.013 365.455 274.075C365.529 274.137 365.623 274.17 365.72 274.167Z" fill="white"/>
<path d="M368.032 255.692C368.07 255.699 368.109 255.699 368.147 255.692C371.852 254.671 375.658 254.058 379.496 253.863C379.599 253.857 379.697 253.811 379.767 253.734C379.837 253.658 379.875 253.557 379.873 253.453C379.872 253.401 379.86 253.35 379.839 253.302C379.818 253.255 379.787 253.212 379.749 253.177C379.71 253.142 379.665 253.115 379.616 253.097C379.567 253.08 379.515 253.073 379.463 253.076C375.558 253.273 371.686 253.897 367.917 254.937C367.868 254.952 367.822 254.977 367.782 255.01C367.742 255.043 367.708 255.083 367.684 255.129C367.66 255.175 367.645 255.225 367.64 255.276C367.635 255.328 367.64 255.38 367.655 255.429C367.681 255.508 367.732 255.576 367.8 255.623C367.868 255.67 367.949 255.694 368.032 255.692Z" fill="white"/>
<path d="M63.6319 270.256L69.1505 267.099C69.1505 267.099 71.7991 252.494 69.8229 239.948C67.0349 222.302 55.0219 216.209 50.6595 217.964C46.2971 219.719 45.2639 224.951 53.1195 235.143C57.8017 241.162 63.7795 253.88 63.6319 270.256Z" fill="#37474F"/>
<path d="M65.5998 263.22C65.4959 263.204 65.4025 263.148 65.3396 263.063C65.2768 262.979 65.2495 262.873 65.2636 262.769C67.5514 246.254 60.9012 228.149 53.4392 220.859C53.3642 220.786 53.3212 220.686 53.3196 220.582C53.3181 220.477 53.3582 220.376 53.431 220.301C53.5039 220.226 53.6035 220.183 53.7081 220.182C53.8127 220.18 53.9136 220.22 53.9886 220.293C61.59 227.722 68.3632 246.115 66.0426 262.884C66.0366 262.935 66.0203 262.985 65.9945 263.03C65.9688 263.075 65.9342 263.115 65.8928 263.146C65.8515 263.178 65.8042 263.2 65.7538 263.213C65.7035 263.226 65.6511 263.228 65.5998 263.22Z" fill="white"/>
<path d="M48.3061 279.103C47.4287 279.603 45.6329 278.512 44.9441 278.045C43.7621 277.244 42.8074 276.151 42.1725 274.872C41.461 273.418 41.2175 271.779 41.4755 270.181C41.6192 269.349 41.8192 268.527 42.0741 267.721L42.7629 265.302C43.0505 264.516 43.1733 263.678 43.1237 262.842C42.9105 261.202 41.4427 260.03 40.1061 259.029C38.6301 257.922 37.0885 256.463 37.0967 254.47C37.2063 252.926 37.8233 251.462 38.8515 250.304C39.8109 249.091 40.9343 248.025 41.7953 246.754C42.4722 245.868 42.8278 244.777 42.8039 243.662C42.7102 242.978 42.4787 242.32 42.1233 241.727C41.3158 240.476 40.6084 239.162 40.0077 237.799C39.5239 236.405 39.5977 234.667 40.6801 233.699C41.1682 233.342 41.7228 233.085 42.3113 232.944C42.8999 232.803 43.5106 232.781 44.1077 232.879C45.2407 233.015 46.3298 233.398 47.2975 234.003C50.4627 235.758 52.2667 239.505 55.6205 240.858C56.9652 241.274 58.3345 241.605 59.7205 241.85C60.4076 241.978 61.0603 242.248 61.6366 242.644C62.2128 243.039 62.6998 243.551 63.0661 244.146C64.3043 246.606 62.0165 249.64 62.8775 252.248C63.6483 254.56 65.8951 255.446 67.1579 257.529C67.6678 258.45 67.8744 259.509 67.7483 260.554C67.6195 262.329 67.1693 264.066 66.4199 265.679C65.5988 267.282 64.6615 268.822 63.6155 270.288C63.5745 270.304 48.4373 279.029 48.3061 279.103Z" fill="#455A64"/>
<path d="M57.2686 274.331C57.1635 274.327 57.0642 274.281 56.9921 274.205C56.9201 274.128 56.881 274.026 56.8832 273.921C57.5392 258.283 50.1674 241.022 44.8128 236.004C44.7761 235.967 44.747 235.924 44.7271 235.876C44.7073 235.828 44.697 235.777 44.697 235.725C44.697 235.673 44.7073 235.622 44.7271 235.574C44.747 235.526 44.7761 235.483 44.8128 235.446C44.8877 235.374 44.9876 235.334 45.0916 235.334C45.1956 235.334 45.2955 235.374 45.3704 235.446C50.8398 240.563 58.3592 258.111 57.6704 273.986C57.6582 274.084 57.6103 274.173 57.536 274.236C57.4617 274.3 57.3664 274.334 57.2686 274.331Z" fill="white"/>
<path d="M54.9398 255.84H54.825C51.1155 254.814 47.304 254.201 43.4598 254.012C43.3561 254.005 43.2589 253.959 43.1886 253.883C43.1183 253.806 43.0803 253.705 43.0826 253.602C43.0836 253.55 43.0952 253.498 43.1165 253.451C43.1379 253.403 43.1687 253.361 43.207 253.325C43.2453 253.29 43.2904 253.263 43.3395 253.246C43.3886 253.228 43.4407 253.221 43.4926 253.224C47.4003 253.421 51.2746 254.046 55.0464 255.086C55.1451 255.118 55.2271 255.187 55.2747 255.28C55.3223 255.372 55.3316 255.479 55.3006 255.578C55.2751 255.654 55.2267 255.72 55.162 255.767C55.0974 255.814 55.0197 255.839 54.9398 255.84Z" fill="white"/>
<path d="M320.112 201.072C320.538 196.931 324.425 188.665 329.287 183.729C334.15 178.793 341.309 175.57 345.942 177.71C350.255 179.703 349.156 185.517 343.326 188.846C337.496 192.175 328.836 196.226 325.753 202.671L319.89 210.395L320.112 201.072Z" fill="#37474F"/>
<path d="M319.218 206.713C319.283 206.713 319.347 206.692 319.4 206.654C319.453 206.616 319.492 206.562 319.513 206.5C323.752 192.642 336.389 182.335 343.498 180.506C343.537 180.496 343.573 180.479 343.605 180.455C343.638 180.432 343.665 180.402 343.685 180.368C343.706 180.333 343.72 180.295 343.725 180.256C343.731 180.216 343.729 180.176 343.719 180.137C343.71 180.098 343.693 180.062 343.669 180.03C343.645 179.998 343.615 179.972 343.58 179.952C343.546 179.932 343.508 179.919 343.468 179.914C343.429 179.909 343.389 179.913 343.35 179.924C336.102 181.785 323.236 192.224 318.931 206.32C318.919 206.358 318.916 206.398 318.92 206.438C318.924 206.477 318.936 206.516 318.955 206.551C318.974 206.586 319 206.617 319.031 206.642C319.062 206.667 319.097 206.686 319.136 206.697L319.218 206.713Z" fill="white"/>
<path d="M320.382 215.98C321.292 213.725 324.531 210.174 329.468 207.476C334.921 204.5 341.53 203.549 343.293 200.974C345.417 197.874 342.973 194.488 337.676 194.594C332.379 194.701 322.448 200.875 319.865 211.462L320.382 215.98Z" fill="#455A64"/>
<path d="M319.628 213.437C319.687 213.438 319.745 213.421 319.794 213.389C319.844 213.357 319.883 213.311 319.907 213.257C325.499 201.597 335.183 198.308 339.529 198.194C339.609 198.189 339.684 198.155 339.739 198.097C339.794 198.039 339.825 197.962 339.824 197.882C339.821 197.842 339.808 197.802 339.788 197.767C339.769 197.731 339.742 197.7 339.709 197.676C339.677 197.651 339.64 197.633 339.601 197.624C339.561 197.614 339.52 197.613 339.48 197.62C334.683 197.743 325.04 201.121 319.324 213.027C319.307 213.064 319.296 213.104 319.294 213.144C319.292 213.185 319.298 213.225 319.311 213.264C319.325 213.302 319.346 213.337 319.374 213.367C319.402 213.397 319.435 213.421 319.472 213.437H319.628Z" fill="white"/>
<path d="M66.2396 298.357L155.734 350.017C156.835 350.575 158.051 350.866 159.285 350.866C160.519 350.866 161.735 350.575 162.836 350.017L332.272 252.175C334.232 251.043 334.232 249.206 332.272 248.075L242.777 196.415C241.678 195.853 240.461 195.56 239.227 195.56C237.992 195.56 236.775 195.853 235.676 196.415L66.2396 294.257C64.2798 295.389 64.2798 297.226 66.2396 298.357Z" fill="#37474F"/>
<path d="M116.054 321.284C117.58 322.056 119.265 322.459 120.974 322.459C122.684 322.459 124.369 322.056 125.894 321.284C128.617 319.71 128.617 317.184 125.894 315.585C124.368 314.816 122.683 314.416 120.974 314.416C119.266 314.416 117.581 314.816 116.054 315.585C113.332 317.159 113.332 319.71 116.054 321.284Z" fill="#263238"/>
<path d="M155.734 350.018L66.2396 298.358C64.4848 297.341 64.3044 295.766 65.6902 294.635C64.8149 295.327 64.0952 296.196 63.5781 297.185C63.061 298.174 62.7581 299.261 62.689 300.375V303.712C62.7563 304.944 63.1128 306.143 63.7297 307.211C64.3465 308.28 65.2064 309.188 66.2396 309.862L155.734 361.522C156.829 362.094 158.051 362.376 159.285 362.342V350.87C158.048 350.894 156.826 350.601 155.734 350.018Z" fill="#455A64"/>
<path d="M332.272 263.712C333.305 263.038 334.165 262.13 334.782 261.061C335.399 259.993 335.755 258.794 335.823 257.562V254.2C335.755 253.086 335.452 251.999 334.935 251.01C334.418 250.02 333.698 249.152 332.822 248.46C334.207 249.592 334.027 251.166 332.272 252.175L162.836 350.017C161.741 350.587 160.519 350.87 159.285 350.837V362.44C160.519 362.473 161.741 362.19 162.836 361.62L332.272 263.712Z" fill="#263238"/>
<path d="M173.84 337.389L91.471 289.829C90.2984 289.157 90.2984 288.05 91.471 287.369L227.042 209.1C227.701 208.765 228.43 208.59 229.17 208.59C229.909 208.59 230.638 208.765 231.297 209.1L313.699 256.66C314.872 257.341 314.872 258.44 313.699 259.12L178.071 337.463C177.409 337.782 176.682 337.941 175.947 337.929C175.212 337.916 174.491 337.731 173.84 337.389Z" fill="#FAFAFA"/>
<path d="M167.124 325.827L104.804 289.821C103.623 289.141 103.623 288.042 104.804 287.361L107.198 285.975C107.859 285.64 108.59 285.465 109.33 285.465C110.071 285.465 110.802 285.64 111.462 285.975L173.782 321.982C174.963 322.654 174.963 323.761 173.782 324.442L171.38 325.827C170.72 326.162 169.991 326.336 169.252 326.336C168.513 326.336 167.784 326.162 167.124 325.827Z" fill="#E6E6E6"/>
<path d="M173.651 328.361L178.186 325.746C178.465 325.597 178.791 325.561 179.096 325.645C179.401 325.729 179.662 325.926 179.826 326.197L181.925 329.837C182.261 330.428 181.999 330.797 181.327 330.657L173.84 329.214C173.127 329.083 173.061 328.706 173.651 328.361Z" fill="#6B6B6B"/>
<path d="M224.213 218.399C225.762 217.614 227.474 217.205 229.211 217.205C230.947 217.205 232.659 217.614 234.208 218.399C236.972 219.989 236.964 222.572 234.208 224.139C232.659 224.923 230.947 225.332 229.211 225.332C227.474 225.332 225.762 224.923 224.213 224.139C221.457 222.581 221.457 219.998 224.213 218.399Z" fill="#E6E6E6"/>
<path d="M287.041 252.749C288.214 253.429 288.214 254.528 287.041 255.209L274.643 262.4C273.982 262.736 273.252 262.911 272.511 262.911C271.77 262.911 271.039 262.736 270.379 262.4L231.338 239.867C230.166 239.186 230.166 238.087 231.338 237.407L242.531 230.945L239.202 225.205L287.041 252.749Z" fill="#E6E6E6"/>
<path d="M246.279 233.93L280.793 253.856C281.375 254.192 281.481 254.676 281.022 254.955C280.717 255.08 280.387 255.133 280.059 255.108C279.73 255.084 279.411 254.984 279.128 254.815L244.614 234.889C244.024 234.553 243.925 234.069 244.385 233.799C244.689 233.671 245.018 233.617 245.347 233.64C245.676 233.663 245.995 233.762 246.279 233.93Z" fill="#FAFAFA"/>
<path d="M242.941 235.865L277.447 255.791C278.037 256.127 278.144 256.611 277.685 256.889C277.378 257.015 277.047 257.067 276.717 257.043C276.387 257.019 276.067 256.919 275.782 256.75L241.277 236.824C240.686 236.488 240.58 236.004 241.039 235.733C241.344 235.606 241.675 235.552 242.006 235.574C242.336 235.597 242.656 235.697 242.941 235.865Z" fill="#FAFAFA"/>
<path d="M239.604 237.8L274.11 257.726C274.7 258.062 274.807 258.546 274.347 258.825C274.041 258.95 273.71 259.003 273.38 258.979C273.05 258.955 272.73 258.854 272.445 258.685L237.939 238.76C237.349 238.423 237.242 237.939 237.702 237.669C238.007 237.542 238.338 237.487 238.668 237.51C238.998 237.533 239.319 237.632 239.604 237.8Z" fill="#FAFAFA"/>
<path d="M217.571 295.348C219.12 294.563 220.832 294.154 222.569 294.154C224.305 294.154 226.017 294.563 227.566 295.348C230.322 296.939 230.322 299.522 227.566 301.088C226.018 301.876 224.306 302.287 222.569 302.287C220.831 302.287 219.119 301.876 217.571 301.088C214.84 299.522 214.84 296.939 217.571 295.348Z" fill="#E6E6E6"/>
<path d="M205.91 290.542L194.709 297.02C194.05 297.356 193.321 297.531 192.581 297.531C191.841 297.531 191.112 297.356 190.453 297.02L151.388 274.47C150.207 273.79 150.207 272.691 151.388 272.01L163.795 264.86C164.454 264.525 165.183 264.35 165.923 264.35C166.662 264.35 167.392 264.525 168.051 264.86L215.906 292.486L205.91 290.542Z" fill="#E6E6E6"/>
<path d="M166.189 268.55L200.695 288.476C201.285 288.812 201.392 289.296 200.933 289.567C200.627 289.694 200.296 289.748 199.966 289.726C199.636 289.703 199.316 289.604 199.03 289.435L164.525 269.51C163.934 269.173 163.828 268.689 164.287 268.419C164.592 268.292 164.923 268.237 165.254 268.26C165.584 268.283 165.904 268.382 166.189 268.55Z" fill="#FAFAFA"/>
<path d="M162.844 270.485L197.358 290.411C197.948 290.748 198.046 291.231 197.587 291.502C197.283 291.629 196.954 291.684 196.625 291.661C196.296 291.638 195.977 291.539 195.693 291.371L161.179 271.42C160.597 271.084 160.49 270.6 160.95 270.33C161.256 270.206 161.586 270.156 161.915 270.183C162.244 270.21 162.562 270.314 162.844 270.485Z" fill="#FAFAFA"/>
<path d="M159.506 272.421L194.02 292.347C194.602 292.683 194.709 293.167 194.25 293.438C193.946 293.565 193.616 293.619 193.287 293.597C192.958 293.574 192.639 293.474 192.356 293.306L157.842 273.38C157.251 273.044 157.153 272.56 157.612 272.29C157.916 272.163 158.246 272.108 158.575 272.131C158.904 272.154 159.223 272.253 159.506 272.421Z" fill="#FAFAFA"/>
<path d="M177.579 245.327C179.127 244.539 180.84 244.128 182.577 244.128C184.314 244.128 186.027 244.539 187.575 245.327C190.338 246.918 190.338 249.501 187.575 251.067C186.026 251.852 184.314 252.261 182.577 252.261C180.84 252.261 179.128 251.852 177.579 251.067C174.824 249.501 174.824 246.918 177.579 245.327Z" fill="#E6E6E6"/>
<path d="M230.42 273.881C231.593 274.561 231.593 275.66 230.42 276.341L221.293 281.572C220.633 281.908 219.902 282.083 219.161 282.083C218.421 282.083 217.69 281.908 217.029 281.572L187.977 264.861C186.804 264.18 186.804 263.081 187.977 262.401L195.906 257.866L192.569 252.126L230.42 273.881Z" fill="#E6E6E6"/>
<path d="M200.9 259.719L225.918 274.159C226.509 274.504 226.615 274.979 226.156 275.258C225.85 275.383 225.519 275.436 225.189 275.413C224.86 275.391 224.54 275.293 224.254 275.127L199.202 260.679C198.612 260.334 198.505 259.859 198.965 259.58C199.275 259.449 199.613 259.393 199.949 259.418C200.285 259.442 200.611 259.545 200.9 259.719Z" fill="#FAFAFA"/>
<path d="M197.522 261.654L222.548 276.095C223.138 276.439 223.245 276.915 222.786 277.193C222.48 277.318 222.149 277.371 221.819 277.349C221.49 277.326 221.169 277.228 220.883 277.062L195.857 262.614C195.275 262.269 195.168 261.794 195.627 261.515C195.932 261.39 196.262 261.337 196.591 261.361C196.92 261.385 197.238 261.486 197.522 261.654Z" fill="#FAFAFA"/>
<path d="M194.184 263.589L219.21 278.029C219.801 278.374 219.899 278.849 219.44 279.128C219.135 279.253 218.806 279.306 218.478 279.283C218.149 279.26 217.83 279.162 217.546 278.997L192.519 264.548C191.929 264.204 191.831 263.728 192.29 263.45C192.595 263.324 192.925 263.272 193.253 263.296C193.582 263.32 193.901 263.42 194.184 263.589Z" fill="#FAFAFA"/>
<path d="M260.875 270.346C262.424 269.561 264.136 269.152 265.873 269.152C267.609 269.152 269.321 269.561 270.871 270.346C273.626 271.945 273.626 274.528 270.871 276.086C269.321 276.87 267.609 277.279 265.873 277.279C264.136 277.279 262.424 276.87 260.875 276.086C258.111 274.528 258.111 271.945 260.875 270.346Z" fill="#E6E6E6"/>
<path d="M249.214 265.541L244.688 268.14C244.027 268.476 243.297 268.65 242.556 268.65C241.815 268.65 241.085 268.476 240.424 268.14L221.4 257.152C220.227 256.471 220.227 255.373 221.4 254.692L227.14 251.412C227.801 251.076 228.531 250.901 229.272 250.901C230.013 250.901 230.743 251.076 231.404 251.412L259.284 267.492L249.214 265.541Z" fill="#E6E6E6"/>
<path d="M230.002 253.38L246.697 263.023C247.287 263.359 247.394 263.843 246.935 264.114C246.629 264.241 246.298 264.296 245.968 264.273C245.638 264.25 245.317 264.151 245.032 263.983L228.337 254.339C227.747 254.003 227.648 253.519 228.107 253.249C228.412 253.122 228.741 253.067 229.07 253.09C229.399 253.113 229.718 253.212 230.002 253.38Z" fill="#FAFAFA"/>
<path d="M226.664 255.348L243.36 264.991C243.95 265.327 244.048 265.811 243.589 266.082C243.285 266.209 242.955 266.263 242.627 266.241C242.298 266.218 241.979 266.118 241.695 265.951L225 256.307C224.409 255.971 224.303 255.487 224.762 255.217C225.068 255.089 225.399 255.035 225.729 255.058C226.059 255.081 226.379 255.18 226.664 255.348Z" fill="#FAFAFA"/>
<path d="M127.625 274.167C129.173 273.382 130.883 272.974 132.619 272.974C134.354 272.974 136.065 273.382 137.612 274.167C140.376 275.766 140.376 278.349 137.612 279.907C136.065 280.692 134.354 281.1 132.619 281.1C130.883 281.1 129.173 280.692 127.625 279.907C124.861 278.349 124.861 275.766 127.625 274.167Z" fill="#E6E6E6"/>
<path d="M167.067 295.061C168.239 295.742 168.239 296.841 167.067 297.521L161.327 300.842C160.666 301.178 159.936 301.353 159.195 301.353C158.454 301.353 157.723 301.178 157.063 300.842L141.401 291.757C140.228 291.076 140.228 289.977 141.401 289.297L145.911 286.673L142.581 280.933L167.067 295.061Z" fill="#E6E6E6"/>
<path d="M150.732 288.369L163.508 295.749C164.098 296.086 164.205 296.569 163.746 296.84C163.44 296.967 163.109 297.022 162.779 296.999C162.449 296.976 162.128 296.877 161.843 296.709L149.068 289.329C148.477 288.993 148.371 288.509 148.83 288.238C149.135 288.111 149.466 288.056 149.797 288.079C150.127 288.102 150.447 288.201 150.732 288.369Z" fill="#FAFAFA"/>
<path d="M147.395 290.281L160.171 297.661C160.761 297.997 160.868 298.481 160.4 298.751C160.096 298.878 159.766 298.933 159.438 298.91C159.109 298.887 158.79 298.788 158.506 298.62L145.722 291.24C145.14 290.904 145.033 290.42 145.493 290.149C145.798 290.022 146.129 289.968 146.459 289.99C146.79 290.013 147.11 290.113 147.395 290.281Z" fill="#FAFAFA"/>
<path d="M280.653 226.435C280.99 226.605 281.362 226.694 281.74 226.694C282.117 226.694 282.489 226.605 282.826 226.435C282.96 226.394 283.078 226.311 283.162 226.198C283.245 226.085 283.29 225.949 283.29 225.808C283.29 225.668 283.245 225.531 283.162 225.418C283.078 225.305 282.96 225.222 282.826 225.181C282.49 225.007 282.118 224.916 281.74 224.916C281.361 224.916 280.989 225.007 280.653 225.181C280.519 225.222 280.401 225.305 280.318 225.418C280.234 225.531 280.189 225.668 280.189 225.808C280.189 225.949 280.234 226.085 280.318 226.198C280.401 226.311 280.519 226.394 280.653 226.435Z" fill="#263238"/>
<path d="M284.13 236.307C284.805 236.647 285.551 236.824 286.307 236.824C287.063 236.824 287.809 236.647 288.484 236.307C289.681 235.61 289.681 234.487 288.484 233.79C287.809 233.45 287.063 233.273 286.307 233.273C285.551 233.273 284.805 233.45 284.13 233.79C282.9 234.52 282.9 235.61 284.13 236.307Z" fill="#263238"/>
<path d="M281.063 231.929C281.883 231.47 281.818 230.691 280.965 230.199L266.648 221.934C266.187 221.69 265.675 221.558 265.154 221.548C264.633 221.538 264.116 221.651 263.646 221.876C262.826 222.344 262.892 223.114 263.745 223.606L278.062 231.88C278.522 232.127 279.035 232.26 279.557 232.268C280.079 232.277 280.595 232.161 281.063 231.929Z" fill="#263238"/>
<path d="M105.337 233.954L100.794 231.33C100.704 231.293 100.629 231.227 100.581 231.142L99.7612 229.682L102.459 228.124L102.377 228.362L105.337 233.954Z" fill="#6B6B6B"/>
<path opacity="0.2" d="M105.337 233.954L100.794 231.33C100.704 231.293 100.629 231.227 100.581 231.142L99.7612 229.682L102.459 228.124L102.377 228.362L105.337 233.954Z" fill="black"/>
<path d="M102.033 228.345L105.182 233.79C105.227 233.863 105.292 233.921 105.369 233.959C105.446 233.997 105.532 234.013 105.617 234.004C105.702 233.996 105.784 233.963 105.852 233.911C105.92 233.859 105.971 233.788 106.002 233.708L109.331 224.122L102.033 228.345Z" fill="#6B6B6B"/>
<path d="M168.617 159.622C168.583 158.86 168.37 158.117 167.996 157.453C167.621 156.789 167.095 156.223 166.46 155.8L164.672 154.767C163.992 154.42 163.239 154.238 162.475 154.238C161.711 154.238 160.958 154.42 160.277 154.767L88.7486 196.038C88.1085 196.454 87.5757 197.016 87.1938 197.677C86.8119 198.338 86.5917 199.08 86.551 199.843V227.632C86.593 228.395 86.8138 229.136 87.1956 229.797C87.5774 230.458 88.1094 231.02 88.7486 231.437L90.5444 232.47C91.2245 232.814 91.9759 232.993 92.7379 232.993C93.5 232.993 94.2513 232.814 94.9314 232.47L166.624 191.06C168.6 189.929 168.617 188.805 168.617 187.403V159.622Z" fill="#6B6B6B"/>
<path opacity="0.2" d="M86.51 227.648C86.552 228.41 86.7728 229.152 87.1546 229.813C87.5363 230.474 88.0684 231.036 88.7076 231.453L90.5034 232.486C91.1227 232.797 91.8007 232.974 92.4931 233.006C93.1856 233.037 93.8768 232.921 94.5214 232.666C93.4882 233.06 92.701 232.47 92.701 231.215V203.425C92.7283 202.661 92.9483 201.917 93.3406 201.26L87.1578 197.693C86.7586 198.347 86.5355 199.093 86.51 199.858V227.648Z" fill="black"/>
<path opacity="0.4" d="M168.543 158.998C168.289 158.063 167.436 157.768 166.419 158.35L94.8904 199.62C94.2427 200.024 93.7113 200.589 93.3488 201.26L87.166 197.693C87.5338 197.023 88.0674 196.459 88.7158 196.053L160.228 154.783C160.912 154.441 161.665 154.263 162.43 154.263C163.194 154.263 163.948 154.441 164.631 154.783L166.46 155.8C167.006 156.163 167.473 156.634 167.831 157.184C168.189 157.734 168.431 158.351 168.543 158.998Z" fill="white"/>
<path d="M98.605 203.91L161.54 167.502C162.278 167.075 162.877 167.272 162.877 167.936C162.821 168.346 162.672 168.736 162.44 169.078C162.208 169.419 161.9 169.702 161.54 169.904L98.6296 206.312C97.8916 206.739 97.293 206.55 97.293 205.886C97.3454 205.478 97.4911 205.088 97.7186 204.745C97.9461 204.402 98.2494 204.117 98.605 203.91Z" fill="white"/>
<path d="M98.6049 216.308L150.732 186.205C151.462 185.779 152.061 185.976 152.061 186.632C152.006 187.041 151.857 187.432 151.627 187.775C151.397 188.118 151.091 188.403 150.732 188.608L98.6049 218.71C97.8669 219.137 97.2683 218.94 97.2683 218.276C97.3222 217.866 97.4711 217.475 97.7032 217.133C97.9353 216.791 98.2441 216.509 98.6049 216.308Z" fill="white"/>
<path d="M98.6049 222.343L159.966 186.853C160.695 186.427 161.294 186.624 161.294 187.288C161.239 187.696 161.091 188.086 160.86 188.428C160.63 188.769 160.324 189.052 159.966 189.256L98.6049 224.746C97.8669 225.164 97.2683 224.975 97.2683 224.311C97.3222 223.901 97.4711 223.51 97.7032 223.169C97.9353 222.827 98.2441 222.544 98.6049 222.343Z" fill="white"/>
<path d="M98.6049 209.969L159.966 174.48C160.695 174.061 161.294 174.25 161.294 174.914C161.239 175.324 161.091 175.715 160.86 176.057C160.63 176.4 160.324 176.685 159.966 176.89L98.6049 212.38C97.8669 212.806 97.2683 212.61 97.2683 211.945C97.3235 211.535 97.4728 211.143 97.7047 210.801C97.9366 210.458 98.2447 210.173 98.6049 209.969Z" fill="white"/>
<path d="M105.337 97.088L100.794 94.464C100.704 94.4269 100.629 94.3604 100.581 94.2754L99.7612 92.8158L102.459 91.2578L102.377 91.4956L105.337 97.088Z" fill="#6B6B6B"/>
<path opacity="0.2" d="M105.337 97.088L100.794 94.464C100.704 94.4269 100.629 94.3604 100.581 94.2754L99.7612 92.8158L102.459 91.2578L102.377 91.4956L105.337 97.088Z" fill="black"/>
<path d="M102.033 91.4792L105.182 96.924C105.229 96.9943 105.294 97.0504 105.371 97.0864C105.447 97.1224 105.532 97.137 105.616 97.1286C105.7 97.1202 105.781 97.0891 105.848 97.0386C105.916 96.9881 105.969 96.9202 106.002 96.842L109.331 87.248L102.033 91.4792Z" fill="#6B6B6B"/>
<path d="M161.212 34.071C161.171 33.3085 160.951 32.5665 160.569 31.9053C160.187 31.2441 159.655 30.6825 159.014 30.2662L157.227 29.233C156.546 28.8854 155.793 28.7041 155.029 28.7041C154.265 28.7041 153.512 28.8854 152.832 29.233L88.7076 66.2396C88.0675 66.6559 87.5347 67.2175 87.1528 67.8787C86.7709 68.5399 86.5507 69.2819 86.51 70.0444V90.774C86.5507 91.5365 86.7709 92.2786 87.1528 92.9398C87.5347 93.601 88.0675 94.1626 88.7076 94.5788L90.5034 95.612C91.1824 95.9596 91.9342 96.1409 92.6969 96.1409C93.4596 96.1409 94.2115 95.9596 94.8904 95.612L159.219 58.4578C161.196 57.3262 161.212 56.2028 161.212 54.8006V34.071Z" fill="#6B6B6B"/>
<path opacity="0.2" d="M86.51 90.7743C86.5507 91.5368 86.7709 92.2789 87.1528 92.9401C87.5347 93.6013 88.0675 94.1629 88.7076 94.5791L90.5034 95.6123C91.1221 95.925 91.7998 96.1035 92.4923 96.136C93.1847 96.1685 93.8762 96.0543 94.5214 95.8009C93.4882 96.1863 92.701 95.5959 92.701 94.3495V73.6117C92.7283 72.8477 92.9483 72.103 93.3406 71.4469L87.1578 67.8799C86.7597 68.5339 86.5366 69.2794 86.51 70.0447V90.7743Z" fill="black"/>
<path opacity="0.4" d="M161.138 33.4478C160.884 32.513 160.031 32.2178 159.014 32.8L94.8904 69.8148C94.2407 70.2157 93.7088 70.7816 93.3488 71.4548L87.166 67.8878C87.5314 67.2158 88.0655 66.6506 88.7158 66.2478L152.823 29.233C153.507 28.891 154.261 28.7129 155.025 28.7129C155.789 28.7129 156.543 28.891 157.227 29.233L159.014 30.2662C159.565 30.625 160.038 31.0921 160.403 31.639C160.768 32.1859 161.018 32.8013 161.138 33.4478Z" fill="white"/>
<path d="M98.6049 79.4338L143.32 53.5956C144.058 53.1692 144.656 53.366 144.656 54.0302C144.6 54.439 144.45 54.8292 144.218 55.1705C143.986 55.5119 143.679 55.7951 143.32 55.9982L98.6049 81.8364C97.8669 82.2628 97.2683 82.066 97.2683 81.41C97.3235 80.9998 97.4728 80.6079 97.7047 80.2651C97.9366 79.9222 98.2447 79.6377 98.6049 79.4338Z" fill="white"/>
<path d="M98.605 85.4687L152.52 54.2431C153.258 53.8167 153.857 54.0135 153.857 54.6777C153.801 55.0868 153.652 55.4776 153.42 55.8191C153.188 56.1606 152.88 56.4436 152.52 56.6457L98.5722 87.8713C97.8342 88.2977 97.2356 88.1009 97.2356 87.4367C97.2943 87.0245 97.4487 86.6317 97.6865 86.29C97.9243 85.9482 98.2389 85.6669 98.605 85.4687Z" fill="white"/>
<path d="M98.6049 73.1029L152.52 41.8773C153.258 41.4509 153.857 41.6395 153.857 42.3037C153.801 42.7139 153.652 43.1058 153.42 43.4487C153.188 43.7915 152.88 44.076 152.52 44.2799L98.6049 75.5055C97.8669 75.9319 97.2683 75.7351 97.2683 75.0709C97.3234 74.6618 97.4729 74.271 97.7048 73.9295C97.9368 73.588 98.2449 73.305 98.6049 73.1029Z" fill="white"/>
<path d="M212.897 68.7648L208.354 66.1408C208.264 66.1036 208.188 66.0372 208.141 65.9522L207.321 64.4926L210.018 62.9346L209.92 63.1396L212.897 68.7648Z" fill="#263238"/>
<path d="M209.592 63.1404L212.741 68.5852C212.788 68.6554 212.853 68.7115 212.93 68.7475C213.006 68.7836 213.091 68.7981 213.175 68.7897C213.26 68.7813 213.34 68.7502 213.408 68.6997C213.476 68.6493 213.529 68.5814 213.561 68.5032L216.89 58.9092L209.592 63.1404Z" fill="#37474F"/>
<path d="M224.426 34.1041C224.378 33.348 224.153 32.6137 223.77 31.96C223.387 31.3063 222.856 30.7516 222.22 30.3403L220.432 29.3071C219.75 28.9664 218.998 28.7891 218.235 28.7891C217.472 28.7891 216.72 28.9664 216.037 29.3071L155.111 64.3703C154.471 64.7866 153.938 65.3482 153.556 66.0094C153.175 66.6706 152.954 67.4127 152.914 68.1751V86.2151C152.954 86.9776 153.175 87.7197 153.556 88.3809C153.938 89.0421 154.471 89.6037 155.111 90.0199L156.899 91.0531C157.579 91.4008 158.332 91.5821 159.096 91.5821C159.86 91.5821 160.614 91.4008 161.294 91.0531L222.433 55.7931C224.409 54.6697 224.426 53.5381 224.426 52.1359V34.1041Z" fill="#37474F"/>
<path d="M152.914 86.1898C152.954 86.9522 153.175 87.6943 153.556 88.3555C153.938 89.0167 154.471 89.5783 155.111 89.9946L156.899 91.0278C157.517 91.3405 158.195 91.5189 158.888 91.5514C159.58 91.5839 160.272 91.4698 160.917 91.2164C159.884 91.6018 159.096 91.0114 159.096 89.765V71.725C159.123 70.9597 159.346 70.2142 159.744 69.5602L153.561 65.9932C153.163 66.6472 152.94 67.3927 152.914 68.158V86.1898Z" fill="#263238"/>
<path d="M224.352 33.481C224.098 32.5462 223.245 32.251 222.228 32.8332L161.294 67.9456C160.642 68.3463 160.107 68.912 159.744 69.5856L153.57 66.0186C153.932 65.3472 154.463 64.7819 155.111 64.3786L216.037 29.2662C216.721 28.9242 217.475 28.7461 218.239 28.7461C219.003 28.7461 219.757 28.9242 220.441 29.2662L222.22 30.3404C222.769 30.6928 223.241 31.1527 223.607 31.6925C223.974 32.2323 224.227 32.8407 224.352 33.481Z" fill="#455A64"/>
<path d="M165.001 73.0535L206.534 49.1096C207.272 48.6914 207.87 48.88 207.87 49.5442C207.816 49.9537 207.667 50.345 207.435 50.6867C207.203 51.0284 206.894 51.3111 206.534 51.5122L165.001 75.4398C164.271 75.858 163.672 75.6694 163.672 75.0052C163.728 74.5995 163.877 74.2122 164.108 73.8737C164.338 73.5352 164.644 73.2545 165.001 73.0535Z" fill="#6B6B6B"/>
<path d="M165.001 79.081L215.775 49.766C216.505 49.3396 217.103 49.5282 217.103 50.1924C217.048 50.6017 216.9 50.9928 216.67 51.3355C216.439 51.6782 216.133 51.9633 215.775 52.1686L165.001 81.4918C164.271 81.91 163.672 81.7214 163.672 81.0572C163.727 80.6479 163.875 80.2568 164.106 79.9141C164.336 79.5714 164.642 79.2863 165.001 79.081Z" fill="#6B6B6B"/>
<path d="M105.337 162.786L100.794 160.162C100.704 160.125 100.629 160.059 100.581 159.974L99.7612 158.514L102.459 156.956L102.377 157.194L105.337 162.786Z" fill="#6B6B6B"/>
<path opacity="0.2" d="M105.337 162.786L100.794 160.162C100.704 160.125 100.629 160.059 100.581 159.974L99.7612 158.514L102.459 156.956L102.377 157.194L105.337 162.786Z" fill="black"/>
<path d="M102.033 157.178L105.182 162.623C105.228 162.693 105.293 162.75 105.369 162.787C105.445 162.823 105.529 162.839 105.614 162.831C105.698 162.823 105.778 162.793 105.846 162.744C105.915 162.694 105.968 162.627 106.002 162.549L109.331 152.955L102.033 157.178Z" fill="#6B6B6B"/>
<path d="M135.997 113.21C135.955 112.447 135.734 111.706 135.353 111.045C134.971 110.384 134.439 109.822 133.8 109.405L132.02 108.372C131.338 108.031 130.585 107.854 129.823 107.854C129.06 107.854 128.307 108.031 127.625 108.372L88.7159 130.815C88.0767 131.232 87.5446 131.794 87.1629 132.455C86.7811 133.116 86.5603 133.858 86.5183 134.62V156.481C86.5603 157.243 86.7811 157.985 87.1629 158.646C87.5446 159.307 88.0767 159.869 88.7159 160.286L90.5117 161.319C91.1918 161.663 91.9432 161.842 92.7052 161.842C93.4672 161.842 94.2186 161.663 94.8987 161.319L134.013 138.72C135.989 137.596 136.005 136.465 136.005 135.071L135.997 113.21Z" fill="#6B6B6B"/>
<path opacity="0.2" d="M86.51 156.481C86.552 157.243 86.7728 157.985 87.1546 158.646C87.5363 159.307 88.0684 159.869 88.7076 160.286L90.5034 161.319C91.1227 161.63 91.8007 161.808 92.4931 161.839C93.1856 161.87 93.8768 161.754 94.5214 161.499C93.4882 161.893 92.701 161.303 92.701 160.048V138.195C92.7273 137.431 92.9474 136.686 93.3406 136.03L87.1578 132.455C86.7597 133.109 86.5366 133.855 86.51 134.62V156.481Z" fill="black"/>
<path opacity="0.4" d="M135.923 112.586C135.669 111.652 134.816 111.356 133.808 111.939L94.8904 134.39C94.2407 134.791 93.7088 135.357 93.3488 136.03L87.166 132.463C87.5314 131.791 88.0655 131.226 88.7158 130.823L127.617 108.372C128.299 108.031 129.051 107.854 129.814 107.854C130.577 107.854 131.329 108.031 132.012 108.372L133.808 109.413C134.357 109.771 134.828 110.236 135.192 110.782C135.556 111.328 135.804 111.942 135.923 112.586Z" fill="white"/>
<path d="M98.605 145.14L118.08 133.857C118.81 133.438 119.408 133.627 119.408 134.291C119.354 134.7 119.205 135.092 118.975 135.434C118.744 135.777 118.438 136.062 118.08 136.267L98.5722 147.542C97.8342 147.969 97.2356 147.772 97.2356 147.108C97.293 146.695 97.4469 146.302 97.6849 145.96C97.9228 145.618 98.2381 145.337 98.605 145.14Z" fill="white"/>
<path d="M98.6049 151.176L127.346 134.48C128.084 134.054 128.674 134.251 128.674 134.915C128.621 135.324 128.474 135.715 128.243 136.056C128.012 136.398 127.705 136.681 127.346 136.883L98.6049 153.545C97.8669 153.964 97.2683 153.775 97.2683 153.111C97.327 152.707 97.4782 152.322 97.71 151.987C97.9419 151.651 98.2481 151.373 98.6049 151.176Z" fill="white"/>
<path d="M98.6049 138.801L127.346 122.18C128.084 121.762 128.674 121.95 128.674 122.614C128.621 123.024 128.474 123.416 128.243 123.759C128.013 124.102 127.705 124.387 127.346 124.591L98.6049 141.204C97.8669 141.63 97.2683 141.433 97.2683 140.777C97.3235 140.367 97.4728 139.975 97.7047 139.633C97.9366 139.29 98.2447 139.005 98.6049 138.801Z" fill="white"/>
<path d="M217.3 186.304L215.348 182.631L216.923 178.096V175.316L212.109 178.096V180.876L214.176 184.451C214.207 184.509 214.256 184.555 214.315 184.582L217.3 186.304Z" fill="#6B6B6B"/>
<path d="M217.3 186.287L214.34 184.582C214.283 184.555 214.234 184.512 214.2 184.459L213.643 183.491L215.152 182.622L217.218 186.197C217.241 186.231 217.269 186.261 217.3 186.287Z" fill="#E0E0E0"/>
<path d="M224.885 161.261C224.852 160.767 224.705 160.287 224.455 159.86C224.204 159.433 223.857 159.071 223.442 158.801L222.261 158.12C221.815 157.894 221.322 157.776 220.822 157.776C220.322 157.776 219.829 157.894 219.383 158.12L192.183 173.84C191.768 174.109 191.421 174.472 191.171 174.899C190.92 175.326 190.773 175.806 190.74 176.3V190.371C190.773 190.865 190.92 191.345 191.171 191.772C191.421 192.199 191.768 192.562 192.183 192.831L193.356 193.512C193.803 193.738 194.298 193.856 194.799 193.856C195.301 193.856 195.795 193.738 196.242 193.512L215.152 182.597L217.218 186.173C217.247 186.225 217.29 186.269 217.343 186.297C217.396 186.325 217.456 186.336 217.516 186.33C217.576 186.324 217.632 186.3 217.678 186.262C217.725 186.224 217.758 186.173 217.776 186.115L219.957 179.818L223.442 177.8C223.862 177.526 224.211 177.157 224.462 176.722C224.712 176.288 224.857 175.8 224.885 175.299V161.261Z" fill="#E6E6E6"/>
<path d="M190.74 190.363C190.773 190.857 190.92 191.337 191.171 191.764C191.421 192.191 191.768 192.553 192.183 192.823L193.356 193.503C193.763 193.709 194.209 193.825 194.664 193.845C195.119 193.865 195.573 193.787 195.996 193.618C195.316 193.881 194.799 193.495 194.799 192.675V178.637C194.818 178.137 194.962 177.649 195.217 177.218L191.158 174.873C190.903 175.304 190.759 175.791 190.74 176.292V190.363Z" fill="#E0E0E0"/>
<path d="M224.836 160.851C224.663 160.236 224.106 160.031 223.442 160.425L196.242 176.144C195.813 176.405 195.462 176.776 195.225 177.218L191.125 174.873C191.367 174.434 191.717 174.064 192.142 173.799L219.333 158.08C219.783 157.86 220.276 157.745 220.777 157.745C221.277 157.745 221.771 157.86 222.22 158.08L223.401 158.76C223.77 158.992 224.088 159.297 224.335 159.657C224.582 160.017 224.752 160.423 224.836 160.851Z" fill="#F0F0F0"/>
<path d="M202.745 178.867C202.185 179.231 201.718 179.722 201.383 180.301C201.048 180.879 200.855 181.529 200.818 182.196C200.818 183.426 201.638 183.926 202.745 183.311C203.305 182.945 203.772 182.452 204.106 181.872C204.441 181.292 204.635 180.642 204.672 179.974C204.672 178.752 203.803 178.252 202.745 178.867Z" fill="white"/>
<path d="M209.838 174.758C209.278 175.125 208.812 175.618 208.477 176.197C208.142 176.777 207.948 177.427 207.911 178.096C207.911 179.317 208.78 179.818 209.838 179.203C210.399 178.838 210.865 178.347 211.2 177.769C211.535 177.19 211.729 176.541 211.765 175.873C211.765 174.66 210.904 174.143 209.838 174.758Z" fill="white"/>
<path d="M216.939 170.651C216.378 171.016 215.911 171.509 215.576 172.089C215.241 172.669 215.048 173.319 215.012 173.988C215.012 175.218 215.873 175.71 216.939 175.103C217.498 174.736 217.963 174.243 218.297 173.663C218.63 173.084 218.822 172.434 218.858 171.766C218.858 170.56 217.997 170.044 216.939 170.651Z" fill="white"/>
<path d="M212.987 129.945L210.01 124.353L212.405 117.44V113.209L205.074 117.44V121.671L208.231 127.133C208.279 127.218 208.354 127.284 208.444 127.321L212.987 129.945Z" fill="#6B6B6B"/>
<path d="M208.436 127.321C208.343 127.285 208.265 127.219 208.215 127.133L207.395 125.673L209.691 124.345L212.839 129.781C212.876 129.851 212.929 129.91 212.995 129.954L208.436 127.321Z" fill="#263238"/>
<path d="M224.5 91.7912C224.458 91.029 224.237 90.2874 223.855 89.6264C223.473 88.9654 222.941 88.4036 222.302 87.9864L220.514 86.9204C219.832 86.5797 219.08 86.4023 218.317 86.4023C217.554 86.4023 216.802 86.5797 216.119 86.9204L161.179 118.622C160.539 119.038 160.006 119.599 159.625 120.261C159.243 120.922 159.022 121.664 158.982 122.426V143.853C159.027 144.616 159.249 145.357 159.63 146.019C160.012 146.681 160.542 147.245 161.179 147.666L162.967 148.699C163.649 149.04 164.402 149.217 165.164 149.217C165.927 149.217 166.68 149.04 167.362 148.699L209.674 124.304L212.815 129.749C212.862 129.819 212.927 129.875 213.004 129.911C213.08 129.947 213.165 129.962 213.249 129.954C213.333 129.945 213.414 129.914 213.482 129.864C213.549 129.813 213.602 129.745 213.635 129.667L216.956 120.081L222.261 116.998C222.9 116.58 223.432 116.018 223.813 115.357C224.195 114.697 224.416 113.955 224.459 113.193L224.5 91.7912Z" fill="#37474F"/>
<path d="M172.348 125.223L217.964 98.8104C218.702 98.384 219.301 98.5808 219.301 99.245C219.246 99.6542 219.096 100.045 218.864 100.386C218.632 100.728 218.324 101.011 217.964 101.213L172.348 127.625C171.618 128.052 171.019 127.863 171.019 127.199C171.074 126.79 171.223 126.398 171.453 126.056C171.683 125.713 171.989 125.428 172.348 125.223Z" fill="#6B6B6B"/>
<path d="M172.348 131.258L207.173 111.151C207.911 110.725 208.51 110.922 208.51 111.586C208.456 111.995 208.307 112.387 208.075 112.728C207.843 113.07 207.534 113.353 207.173 113.554L172.348 133.66C171.618 134.087 171.019 133.89 171.019 133.234C171.074 132.825 171.223 132.433 171.453 132.091C171.683 131.748 171.989 131.463 172.348 131.258Z" fill="#6B6B6B"/>
<path d="M172.348 137.293L216.415 111.799C217.144 111.381 217.743 111.569 217.743 112.234C217.688 112.643 217.54 113.034 217.309 113.377C217.079 113.719 216.773 114.004 216.415 114.21L172.348 139.695C171.618 140.122 171.019 139.925 171.019 139.261C171.074 138.853 171.223 138.463 171.453 138.121C171.683 137.78 171.99 137.496 172.348 137.293Z" fill="#6B6B6B"/>
<path d="M158.99 143.885C159.035 144.648 159.257 145.389 159.638 146.051C160.02 146.713 160.55 147.277 161.187 147.698L162.975 148.732C163.596 149.043 164.276 149.219 164.97 149.249C165.664 149.278 166.356 149.161 167.001 148.904C165.96 149.297 165.173 148.715 165.173 147.461V126.026C165.199 125.261 165.422 124.515 165.82 123.861L159.638 120.294C159.239 120.948 159.016 121.694 158.99 122.459V143.885Z" fill="#263238"/>
<path d="M224.426 91.1674C224.172 90.2326 223.319 89.9374 222.302 90.5196L167.362 122.229C166.71 122.63 166.176 123.195 165.812 123.869L159.638 120.302C160 119.631 160.532 119.065 161.179 118.662L216.119 86.9526C216.802 86.6119 217.554 86.4346 218.317 86.4346C219.08 86.4346 219.832 86.6119 220.515 86.9526L222.31 87.994C222.86 88.352 223.33 88.818 223.694 89.3635C224.058 89.909 224.307 90.5227 224.426 91.1674Z" fill="#455A64"/>
<path d="M327.18 114.652C327.131 113.996 325.909 107.042 325.073 103.172L316.873 105.632L318.185 111.085L324.983 117.645C325.664 117.526 326.274 117.148 326.683 116.59C327.093 116.032 327.271 115.338 327.18 114.652Z" fill="#FFA8A7"/>
<path d="M320.325 94.9395H294.232V66.7643C294.232 65.3116 294.519 63.8732 295.074 62.5311C295.63 61.189 296.445 59.9696 297.472 58.9424C298.5 57.9152 299.719 57.1004 301.061 56.5445C302.403 55.9886 303.842 55.7025 305.294 55.7025H309.271C310.724 55.7025 312.162 55.9886 313.504 56.5445C314.846 57.1004 316.066 57.9152 317.093 58.9424C318.12 59.9696 318.935 61.189 319.491 62.5311C320.047 63.8732 320.333 65.3116 320.333 66.7643V94.9395H320.325Z" fill="#263238"/>
<path d="M287.648 99.9902L283.778 107.067L289.796 112.225L295.299 103.492L287.648 99.9902Z" fill="#F28F8F"/>
<path d="M282.408 108.166C281.588 110.396 279.62 113.906 281.9 115.653C284.179 117.399 290.534 115.3 290.534 115.3L282.408 108.166Z" fill="#F28F8F"/>
<path d="M302.145 84.1973C298.316 84.1973 294.093 85.6323 292.642 88.6335C291.19 91.6347 286.647 100.999 286.647 100.999C286.647 100.999 290.034 105.919 295.413 105.607L302.145 84.1973Z" fill="#EBEBEB"/>
<path d="M296.676 209.099C295.244 210.776 293.654 212.311 291.928 213.683C291.651 213.877 291.426 214.136 291.272 214.437C291.067 214.938 290.764 216.16 293.027 216.824C294.17 217.155 295.372 217.236 296.549 217.06C297.727 216.885 298.852 216.457 299.85 215.807C301.621 214.569 301.58 212.191 303.228 210.739C304.45 209.673 306.032 209.329 307 207.968C307.672 207.016 307.418 205.811 307 204.319C306.508 202.679 306.254 201.465 305.713 201.621L305.844 202.375C305.221 203.49 301.744 204.015 300.104 203.326C299.061 205.308 297.917 207.235 296.676 209.099Z" fill="#263238"/>
<path d="M295.2 210.739C295.717 210.218 296.207 209.671 296.668 209.099C297.639 207.695 298.524 206.233 299.316 204.72C299.759 203.815 299.906 202.794 299.735 201.801L299.259 197.824L305.253 196.938L305.803 202.367C305.999 203.605 305.032 204.753 303.302 206.409C301.571 208.066 299.456 211.83 297.857 212.838C296.258 213.847 295.085 213.863 294.364 213.429C293.642 212.994 293.56 212.633 295.2 210.739Z" fill="#FFA8A7"/>
<path d="M315.077 210.125V209.305C314.749 210.289 313.207 214.52 310.887 216.685C309.034 218.374 306.508 220.326 305.868 222.203C305.229 224.081 309.378 224.819 311.108 224.516C313.421 224.115 315.537 222.962 317.127 221.236C318.127 220.022 318.767 218.571 319.472 217.611C320.177 216.652 321.817 215.578 322.203 214.463C322.315 213.425 322.201 212.376 321.867 211.388C321.588 210.346 321.301 209.206 320.94 209.305V209.92C320.106 210.575 319.073 210.925 318.013 210.912C317.152 210.953 315.069 210.781 315.077 210.125Z" fill="#263238"/>
<path d="M309.206 218.12C309.78 217.611 310.362 217.111 310.887 216.636C312.449 214.979 313.664 213.028 314.462 210.896C314.87 209.916 315.079 208.865 315.077 207.804V204.467H320.94V209.92V210.067C320.653 211.281 317.963 214.528 316.43 216.627C315.413 218.046 313.462 219.842 311.133 220.153C308.902 220.481 307.779 219.76 309.206 218.12Z" fill="#FFA8A7"/>
<path d="M319.8 118.965C324.351 128.895 319.636 163.885 319.636 163.885C319.776 165.525 321.612 168.665 322.301 175.766C323.121 184.147 321.03 205.188 321.03 205.188C320.136 205.708 319.129 206.002 318.095 206.043C317.062 206.085 316.034 205.873 315.102 205.426C315.102 205.426 309.509 173.733 308.46 165.393C307.541 158.12 306 146.066 306 146.066L303.679 165.303C303.679 165.303 304.745 169.887 305.065 172.995C305.672 178.735 305.622 198.325 305.622 198.325C303.702 199.443 301.45 199.852 299.259 199.481C299.259 199.481 293.568 169.313 291.978 163.606C291.264 161.039 290.936 131.495 293.773 117.514L319.8 118.965Z" fill="#6B6B6B"/>
<path opacity="0.2" d="M306.008 146.066L304.368 133.651C301.884 133.539 299.479 132.747 297.414 131.363C299.087 132.952 301.073 134.175 303.244 134.955L304.884 145.475L304.425 158.891L306.008 146.066Z" fill="black"/>
<path d="M311.756 84.4597C313.43 84.8647 314.991 85.6411 316.323 86.7312C317.656 87.8213 318.727 89.1973 319.456 90.7573C320.519 93.1307 320.616 95.8247 319.726 98.2685L315.626 110.027C315.626 110.027 321.022 118.752 321.022 123.688C312.002 128.723 297.455 127.083 292.822 123.811C292.691 122.934 293.79 112.659 293.544 108.141C293.281 103.328 292.617 97.8913 293.372 94.9147C294.782 89.3879 297.414 84.1973 302.654 84.1973L311.756 84.4597Z" fill="#F5F5F5"/>
<path d="M313.24 84.46C316.717 84.952 321.826 85.6572 323.589 93.9228C325.352 102.188 325.885 105.222 325.885 105.222C325.885 105.222 323.031 108.543 317.258 108.502L315.462 102.147L313.24 84.46Z" fill="#F5F5F5"/>
<path d="M311.297 91.4375C312.508 91.4375 313.67 90.9563 314.526 90.0998C315.383 89.2432 315.864 88.0815 315.864 86.8701V73.5615H311.297V91.4375Z" fill="#263238"/>
<path d="M298.521 61.0078C297.143 61.8278 295.438 65.2882 295.602 72.5534C295.749 78.7116 297.742 80.2368 298.751 80.6714C299.759 81.106 301.686 80.8436 303.564 80.532V84.2302C303.564 84.2302 300.965 87.2478 301.104 88.9452C301.243 90.6426 304.851 91.0362 307.287 89.3798C308.861 88.2455 310.212 86.8306 311.272 85.206V76.2598C311.47 76.5022 311.713 76.7029 311.989 76.8504C312.265 76.9978 312.567 77.0891 312.878 77.1188C313.189 77.1486 313.503 77.1162 313.802 77.0237C314.1 76.9311 314.378 76.7802 314.618 76.5796C316.692 75.202 316.774 71.7908 315.561 70.569C314.347 69.3472 311.756 69.749 311.272 71.389C308.807 71.284 306.406 70.5683 304.286 69.3062C302.743 68.4703 301.417 67.2841 300.416 65.8428C299.415 64.4016 298.766 62.7455 298.521 61.0078Z" fill="#FFA8A7"/>
<path d="M302.482 71.0118C302.48 71.2145 302.554 71.4105 302.689 71.5619C302.824 71.7134 303.01 71.8095 303.211 71.8318C303.419 71.8323 303.62 71.7539 303.772 71.6123C303.924 71.4707 304.017 71.2766 304.031 71.0692C304.046 70.962 304.039 70.8528 304.009 70.7487C303.98 70.6445 303.929 70.5477 303.86 70.4644C303.791 70.381 303.705 70.313 303.608 70.2646C303.511 70.2163 303.405 70.1886 303.297 70.1835C303.189 70.1783 303.081 70.1958 302.98 70.2347C302.879 70.2737 302.787 70.3332 302.71 70.4096C302.634 70.486 302.574 70.5776 302.534 70.6784C302.495 70.7793 302.477 70.8873 302.482 70.9954V71.0118Z" fill="#263238"/>
<path d="M302.277 76.2598L300.473 76.8338C300.506 76.9542 300.562 77.0668 300.64 77.165C300.717 77.2631 300.813 77.3448 300.922 77.4051C301.032 77.4655 301.152 77.5034 301.276 77.5165C301.4 77.5296 301.526 77.5178 301.645 77.4816C301.888 77.3989 302.089 77.2256 302.207 76.9978C302.325 76.77 302.35 76.5055 302.277 76.2598Z" fill="#F28F8F"/>
<path d="M296.135 68.6335L297.701 67.5429C297.635 67.4377 297.548 67.347 297.445 67.2765C297.343 67.2059 297.227 67.1568 297.105 67.1323C296.983 67.1078 296.858 67.1083 296.736 67.1337C296.614 67.1592 296.499 67.2091 296.397 67.2805C296.187 67.428 296.042 67.6516 295.993 67.904C295.944 68.1563 295.995 68.4179 296.135 68.6335Z" fill="#263238"/>
<path d="M296.496 70.4462C296.494 70.5968 296.537 70.7445 296.619 70.8711C296.701 70.9976 296.818 71.0974 296.956 71.1582C297.093 71.2189 297.246 71.2379 297.395 71.2129C297.543 71.1879 297.681 71.1198 297.791 71.0173C297.902 70.9147 297.979 70.782 298.015 70.6357C298.051 70.4893 298.043 70.3357 297.992 70.1939C297.942 70.052 297.851 69.928 297.73 69.8374C297.61 69.7467 297.466 69.6932 297.316 69.6836C297.108 69.6831 296.907 69.7616 296.755 69.9031C296.603 70.0447 296.51 70.2388 296.496 70.4462Z" fill="#263238"/>
<path d="M300.145 70.0029L300.022 74.6687L297.57 73.9061L300.145 70.0029Z" fill="#F28F8F"/>
<path d="M303.564 80.5315C305.54 80.2773 309.616 79.1047 310.255 77.4893C309.998 78.3035 309.498 79.0191 308.82 79.5393C307.607 80.5807 303.564 81.7615 303.564 81.7615V80.5315Z" fill="#F28F8F"/>
<path d="M291.92 108.174C290.797 106.083 290.518 105.984 289.845 105.533C289.173 105.082 285.081 104.459 283.384 104.32C281.383 104.147 280.67 104.516 281.227 106.238C282.416 109.92 285.499 116.825 286.311 117.907C286.836 118.612 286.59 119.293 289.206 119.834C291.272 120.26 294.462 120.711 295.233 120.761C296.004 120.81 297.086 120.998 296.389 118.719C295.501 116.137 294.475 113.605 293.314 111.134C292.445 109.264 291.92 108.174 291.92 108.174Z" fill="#263238"/>
<path d="M318.218 111.109C318.218 111.109 301.481 112.61 299.128 111.88C296.775 111.15 295.791 109.806 294.306 108.518C292.822 107.231 291.789 107.542 291.789 107.944C292.092 108.543 292.962 110.478 293.306 111.134C293.757 112.003 291.74 112.061 289.255 111.487C286.771 110.913 285.77 109.461 285.155 110.314C284.54 111.167 286.533 115.3 290.666 116.874C294.798 118.448 297.865 117.399 301.285 117.538C304.704 117.678 320.309 119.178 325.065 117.719C325.188 116.959 325.1 116.18 324.811 115.467C324.522 114.755 324.042 114.135 323.425 113.676C321.88 112.478 320.109 111.605 318.218 111.109Z" fill="#FFA8A7"/>
<path d="M316.906 106.435C316.122 104.325 315.454 102.173 314.905 99.9902C314.905 99.9902 315.233 104.787 316.586 107.37L316.906 106.435Z" fill="#E0E0E0"/>
</svg>
