<svg width="262" height="358" viewBox="0 0 262 358" fill="none" xmlns="http://www.w3.org/2000/svg">
<g opacity="0.3">
<line x1="178.333" y1="11.165" x2="182.071" y2="0.894866" stroke="#008EDB" stroke-width="1.7549"/>
<line x1="201.695" y1="10.6854" x2="207.159" y2="1.22037" stroke="#008EDB" stroke-width="1.7549"/>
<line x1="225.203" y1="10.2182" x2="232.228" y2="1.84588" stroke="#008EDB" stroke-width="1.7549"/>
<line x1="248.889" y1="9.42708" x2="257.261" y2="2.40188" stroke="#008EDB" stroke-width="1.7549"/>
<line x1="15.5386" y1="10.7714" x2="7.16629" y2="3.74622" stroke="#008EDB" stroke-width="1.7549"/>
<line x1="39.0119" y1="11.3462" x2="31.9867" y2="2.97391" stroke="#008EDB" stroke-width="1.7549"/>
<line x1="62.3446" y1="11.5628" x2="56.88" y2="2.09782" stroke="#008EDB" stroke-width="1.7549"/>
<line x1="85.577" y1="11.7652" x2="81.8389" y2="1.49508" stroke="#008EDB" stroke-width="1.7549"/>
<line x1="108.749" y1="11.9594" x2="106.851" y2="1.19618" stroke="#008EDB" stroke-width="1.7549"/>
<line x1="131.902" y1="11.807" x2="131.902" y2="0.877775" stroke="#008EDB" stroke-width="1.7549"/>
<line x1="155.082" y1="11.6547" x2="156.98" y2="0.891448" stroke="#008EDB" stroke-width="1.7549"/>
<line x1="153.744" y1="30.2916" x2="157.482" y2="20.0214" stroke="#008EDB" stroke-width="1.7549"/>
<line x1="177.102" y1="29.8111" x2="182.567" y2="20.346" stroke="#008EDB" stroke-width="1.7549"/>
<line x1="200.61" y1="29.3447" x2="207.635" y2="20.9724" stroke="#008EDB" stroke-width="1.7549"/>
<line x1="224.3" y1="28.5536" x2="232.672" y2="21.5284" stroke="#008EDB" stroke-width="1.7549"/>
<line x1="248.195" y1="27.4411" x2="257.66" y2="21.9765" stroke="#008EDB" stroke-width="1.7549"/>
<line x1="14.4227" y1="30.4727" x2="7.39755" y2="22.1004" stroke="#008EDB" stroke-width="1.7549"/>
<line x1="37.7554" y1="30.6885" x2="32.2907" y2="21.2235" stroke="#008EDB" stroke-width="1.7549"/>
<line x1="60.9844" y1="30.8918" x2="57.2463" y2="20.6216" stroke="#008EDB" stroke-width="1.7549"/>
<line x1="84.1561" y1="31.0851" x2="82.2582" y2="20.3219" stroke="#008EDB" stroke-width="1.7549"/>
<line x1="107.309" y1="30.9327" x2="107.31" y2="20.0034" stroke="#008EDB" stroke-width="1.7549"/>
<line x1="130.493" y1="30.7803" x2="132.391" y2="20.0171" stroke="#008EDB" stroke-width="1.7549"/>
<line x1="129.151" y1="49.4181" x2="132.889" y2="39.1479" stroke="#008EDB" stroke-width="1.7549"/>
<line x1="152.513" y1="48.9376" x2="157.978" y2="39.4726" stroke="#008EDB" stroke-width="1.7549"/>
<line x1="176.021" y1="48.4704" x2="183.046" y2="40.0981" stroke="#008EDB" stroke-width="1.7549"/>
<line x1="199.711" y1="47.6793" x2="208.083" y2="40.6541" stroke="#008EDB" stroke-width="1.7549"/>
<line x1="223.606" y1="46.5668" x2="233.071" y2="41.1021" stroke="#008EDB" stroke-width="1.7549"/>
<line x1="247.731" y1="45.8192" x2="258.001" y2="42.0811" stroke="#008EDB" stroke-width="1.7549"/>
<line x1="13.1628" y1="49.815" x2="7.69814" y2="40.35" stroke="#008EDB" stroke-width="1.7549"/>
<line x1="36.3951" y1="50.0183" x2="32.6571" y2="39.7482" stroke="#008EDB" stroke-width="1.7549"/>
<line x1="59.5669" y1="50.2116" x2="57.6691" y2="39.4484" stroke="#008EDB" stroke-width="1.7549"/>
<line x1="82.7203" y1="50.0593" x2="82.7203" y2="39.13" stroke="#008EDB" stroke-width="1.7549"/>
<line x1="105.9" y1="49.9069" x2="107.798" y2="39.1437" stroke="#008EDB" stroke-width="1.7549"/>
<line x1="104.562" y1="68.5438" x2="108.3" y2="58.2737" stroke="#008EDB" stroke-width="1.7549"/>
<line x1="127.92" y1="68.0641" x2="133.385" y2="58.5991" stroke="#008EDB" stroke-width="1.7549"/>
<line x1="151.428" y1="67.597" x2="158.454" y2="59.2247" stroke="#008EDB" stroke-width="1.7549"/>
<line x1="175.118" y1="66.8059" x2="183.49" y2="59.7807" stroke="#008EDB" stroke-width="1.7549"/>
<line x1="199.017" y1="65.6933" x2="208.482" y2="60.2287" stroke="#008EDB" stroke-width="1.7549"/>
<line x1="223.141" y1="64.9457" x2="233.412" y2="61.2077" stroke="#008EDB" stroke-width="1.7549"/>
<line x1="247.512" y1="63.8813" x2="258.275" y2="61.9835" stroke="#008EDB" stroke-width="1.7549"/>
<line x1="11.8025" y1="69.144" x2="8.06451" y2="58.8739" stroke="#008EDB" stroke-width="1.7549"/>
<line x1="34.9743" y1="69.3382" x2="33.0764" y2="58.5749" stroke="#008EDB" stroke-width="1.7549"/>
<line x1="58.1277" y1="69.1858" x2="58.1277" y2="58.2565" stroke="#008EDB" stroke-width="1.7549"/>
<line x1="81.3112" y1="69.0334" x2="83.209" y2="58.2702" stroke="#008EDB" stroke-width="1.7549"/>
<line x1="79.9695" y1="87.6704" x2="83.7075" y2="77.4002" stroke="#008EDB" stroke-width="1.7549"/>
<line x1="103.331" y1="87.1898" x2="108.796" y2="77.7248" stroke="#008EDB" stroke-width="1.7549"/>
<line x1="126.839" y1="86.7235" x2="133.864" y2="78.3512" stroke="#008EDB" stroke-width="1.7549"/>
<line x1="150.529" y1="85.9316" x2="158.901" y2="78.9064" stroke="#008EDB" stroke-width="1.7549"/>
<line x1="174.424" y1="84.8198" x2="183.889" y2="79.3552" stroke="#008EDB" stroke-width="1.7549"/>
<line x1="198.549" y1="84.0714" x2="208.819" y2="80.3334" stroke="#008EDB" stroke-width="1.7549"/>
<line x1="222.919" y1="83.0078" x2="233.682" y2="81.11" stroke="#008EDB" stroke-width="1.7549"/>
<line x1="10.3851" y1="88.4639" x2="8.48724" y2="77.7006" stroke="#008EDB" stroke-width="1.7549"/>
<line x1="33.5385" y1="88.3115" x2="33.5385" y2="77.3822" stroke="#008EDB" stroke-width="1.7549"/>
<line x1="56.7186" y1="88.1591" x2="58.6164" y2="77.3959" stroke="#008EDB" stroke-width="1.7549"/>
<line x1="261.199" y1="83.7246" x2="250.27" y2="83.7246" stroke="#008EDB" stroke-width="1.7549"/>
<line x1="55.3803" y1="106.796" x2="59.1183" y2="96.5259" stroke="#008EDB" stroke-width="1.7549"/>
<line x1="78.7385" y1="106.316" x2="84.2031" y2="96.8514" stroke="#008EDB" stroke-width="1.7549"/>
<line x1="102.247" y1="105.849" x2="109.272" y2="97.4769" stroke="#008EDB" stroke-width="1.7549"/>
<line x1="125.936" y1="105.058" x2="134.309" y2="98.0329" stroke="#008EDB" stroke-width="1.7549"/>
<line x1="149.835" y1="103.946" x2="159.3" y2="98.4809" stroke="#008EDB" stroke-width="1.7549"/>
<line x1="173.96" y1="103.198" x2="184.23" y2="99.46" stroke="#008EDB" stroke-width="1.7549"/>
<line x1="198.33" y1="102.134" x2="209.093" y2="100.236" stroke="#008EDB" stroke-width="1.7549"/>
<line x1="8.94585" y1="107.438" x2="8.94585" y2="96.5088" stroke="#008EDB" stroke-width="1.7549"/>
<line x1="32.1293" y1="107.286" x2="34.0272" y2="96.5225" stroke="#008EDB" stroke-width="1.7549"/>
<line x1="236.607" y1="102.851" x2="225.677" y2="102.851" stroke="#008EDB" stroke-width="1.7549"/>
<line x1="260.924" y1="103.862" x2="250.16" y2="101.964" stroke="#008EDB" stroke-width="1.7549"/>
<line x1="30.7876" y1="125.923" x2="34.5257" y2="115.652" stroke="#008EDB" stroke-width="1.7549"/>
<line x1="54.1493" y1="125.442" x2="59.614" y2="115.977" stroke="#008EDB" stroke-width="1.7549"/>
<line x1="77.6574" y1="124.976" x2="84.6826" y2="116.603" stroke="#008EDB" stroke-width="1.7549"/>
<line x1="101.347" y1="124.185" x2="109.719" y2="117.159" stroke="#008EDB" stroke-width="1.7549"/>
<line x1="125.242" y1="123.072" x2="134.707" y2="117.607" stroke="#008EDB" stroke-width="1.7549"/>
<line x1="149.367" y1="122.325" x2="159.637" y2="118.586" stroke="#008EDB" stroke-width="1.7549"/>
<line x1="173.737" y1="121.26" x2="184.5" y2="119.362" stroke="#008EDB" stroke-width="1.7549"/>
<line x1="7.53676" y1="126.412" x2="9.4346" y2="115.649" stroke="#008EDB" stroke-width="1.7549"/>
<line x1="212.018" y1="121.977" x2="201.088" y2="121.977" stroke="#008EDB" stroke-width="1.7549"/>
<line x1="236.331" y1="122.988" x2="225.568" y2="121.09" stroke="#008EDB" stroke-width="1.7549"/>
<line x1="260.406" y1="123.974" x2="250.136" y2="120.236" stroke="#008EDB" stroke-width="1.7549"/>
<line x1="6.19848" y1="145.049" x2="9.9365" y2="134.779" stroke="#008EDB" stroke-width="1.7549"/>
<line x1="29.5567" y1="144.569" x2="35.0213" y2="135.104" stroke="#008EDB" stroke-width="1.7549"/>
<line x1="53.0648" y1="144.101" x2="60.09" y2="135.729" stroke="#008EDB" stroke-width="1.7549"/>
<line x1="76.7545" y1="143.31" x2="85.1268" y2="136.285" stroke="#008EDB" stroke-width="1.7549"/>
<line x1="100.653" y1="142.198" x2="110.118" y2="136.733" stroke="#008EDB" stroke-width="1.7549"/>
<line x1="124.778" y1="141.45" x2="135.048" y2="137.712" stroke="#008EDB" stroke-width="1.7549"/>
<line x1="149.148" y1="140.387" x2="159.911" y2="138.489" stroke="#008EDB" stroke-width="1.7549"/>
<line x1="259.664" y1="143.718" x2="250.199" y2="138.253" stroke="#008EDB" stroke-width="1.7549"/>
<line x1="187.428" y1="141.103" x2="176.499" y2="141.103" stroke="#008EDB" stroke-width="1.7549"/>
<line x1="211.742" y1="142.115" x2="200.979" y2="140.217" stroke="#008EDB" stroke-width="1.7549"/>
<line x1="235.813" y1="143.099" x2="225.543" y2="139.361" stroke="#008EDB" stroke-width="1.7549"/>
<line x1="4.96752" y1="163.695" x2="10.4322" y2="154.23" stroke="#008EDB" stroke-width="1.7549"/>
<line x1="28.4756" y1="163.228" x2="35.5008" y2="154.856" stroke="#008EDB" stroke-width="1.7549"/>
<line x1="52.1653" y1="162.437" x2="60.5376" y2="155.412" stroke="#008EDB" stroke-width="1.7549"/>
<line x1="76.0605" y1="161.324" x2="85.5256" y2="155.86" stroke="#008EDB" stroke-width="1.7549"/>
<line x1="100.185" y1="160.577" x2="110.455" y2="156.839" stroke="#008EDB" stroke-width="1.7549"/>
<line x1="124.555" y1="159.512" x2="135.319" y2="157.614" stroke="#008EDB" stroke-width="1.7549"/>
<line x1="235.071" y1="162.844" x2="225.606" y2="157.379" stroke="#008EDB" stroke-width="1.7549"/>
<line x1="258.719" y1="163.781" x2="250.347" y2="156.756" stroke="#008EDB" stroke-width="1.7549"/>
<line x1="162.836" y1="160.229" x2="151.906" y2="160.229" stroke="#008EDB" stroke-width="1.7549"/>
<line x1="187.149" y1="161.241" x2="176.386" y2="159.343" stroke="#008EDB" stroke-width="1.7549"/>
<line x1="211.224" y1="162.226" x2="200.954" y2="158.488" stroke="#008EDB" stroke-width="1.7549"/>
<line x1="3.88301" y1="182.355" x2="10.9082" y2="173.982" stroke="#008EDB" stroke-width="1.7549"/>
<line x1="27.5726" y1="181.563" x2="35.9449" y2="174.537" stroke="#008EDB" stroke-width="1.7549"/>
<line x1="51.4714" y1="180.451" x2="60.9364" y2="174.986" stroke="#008EDB" stroke-width="1.7549"/>
<line x1="75.596" y1="179.703" x2="85.8661" y2="175.965" stroke="#008EDB" stroke-width="1.7549"/>
<line x1="99.9661" y1="178.639" x2="110.729" y2="176.741" stroke="#008EDB" stroke-width="1.7549"/>
<line x1="210.482" y1="181.971" x2="201.017" y2="176.506" stroke="#008EDB" stroke-width="1.7549"/>
<line x1="234.127" y1="182.907" x2="225.754" y2="175.882" stroke="#008EDB" stroke-width="1.7549"/>
<line x1="257.6" y1="183.483" x2="250.575" y2="175.11" stroke="#008EDB" stroke-width="1.7549"/>
<line x1="138.246" y1="179.356" x2="127.317" y2="179.356" stroke="#008EDB" stroke-width="1.7549"/>
<line x1="162.56" y1="180.367" x2="151.797" y2="178.469" stroke="#008EDB" stroke-width="1.7549"/>
<line x1="186.635" y1="181.352" x2="176.364" y2="177.614" stroke="#008EDB" stroke-width="1.7549"/>
<line x1="2.98347" y1="200.689" x2="11.3558" y2="193.664" stroke="#008EDB" stroke-width="1.7549"/>
<line x1="26.8788" y1="199.577" x2="36.3438" y2="194.112" stroke="#008EDB" stroke-width="1.7549"/>
<line x1="51.0034" y1="198.829" x2="61.2735" y2="195.091" stroke="#008EDB" stroke-width="1.7549"/>
<line x1="75.3735" y1="197.765" x2="86.1367" y2="195.867" stroke="#008EDB" stroke-width="1.7549"/>
<line x1="185.889" y1="201.096" x2="176.424" y2="195.632" stroke="#008EDB" stroke-width="1.7549"/>
<line x1="209.537" y1="202.033" x2="201.165" y2="195.008" stroke="#008EDB" stroke-width="1.7549"/>
<line x1="233.007" y1="202.608" x2="225.982" y2="194.236" stroke="#008EDB" stroke-width="1.7549"/>
<line x1="256.343" y1="202.825" x2="250.879" y2="193.36" stroke="#008EDB" stroke-width="1.7549"/>
<line x1="113.654" y1="198.482" x2="102.725" y2="198.482" stroke="#008EDB" stroke-width="1.7549"/>
<line x1="137.967" y1="199.493" x2="127.204" y2="197.595" stroke="#008EDB" stroke-width="1.7549"/>
<line x1="162.042" y1="200.478" x2="151.772" y2="196.74" stroke="#008EDB" stroke-width="1.7549"/>
<line x1="2.28961" y1="218.703" x2="11.7546" y2="213.238" stroke="#008EDB" stroke-width="1.7549"/>
<line x1="26.4142" y1="217.956" x2="36.6843" y2="214.218" stroke="#008EDB" stroke-width="1.7549"/>
<line x1="50.7843" y1="216.891" x2="61.5475" y2="214.993" stroke="#008EDB" stroke-width="1.7549"/>
<line x1="161.3" y1="220.223" x2="151.835" y2="214.758" stroke="#008EDB" stroke-width="1.7549"/>
<line x1="184.945" y1="221.16" x2="176.573" y2="214.135" stroke="#008EDB" stroke-width="1.7549"/>
<line x1="208.418" y1="221.735" x2="201.393" y2="213.362" stroke="#008EDB" stroke-width="1.7549"/>
<line x1="231.751" y1="221.951" x2="226.286" y2="212.485" stroke="#008EDB" stroke-width="1.7549"/>
<line x1="254.983" y1="222.154" x2="251.245" y2="211.884" stroke="#008EDB" stroke-width="1.7549"/>
<line x1="89.0646" y1="217.608" x2="78.1354" y2="217.608" stroke="#008EDB" stroke-width="1.7549"/>
<line x1="113.378" y1="218.619" x2="102.615" y2="216.722" stroke="#008EDB" stroke-width="1.7549"/>
<line x1="137.453" y1="219.605" x2="127.183" y2="215.867" stroke="#008EDB" stroke-width="1.7549"/>
<line x1="1.82154" y1="237.081" x2="12.0917" y2="233.343" stroke="#008EDB" stroke-width="1.7549"/>
<line x1="26.1917" y1="236.018" x2="36.955" y2="234.12" stroke="#008EDB" stroke-width="1.7549"/>
<line x1="136.708" y1="239.349" x2="127.242" y2="233.885" stroke="#008EDB" stroke-width="1.7549"/>
<line x1="160.356" y1="240.286" x2="151.983" y2="233.26" stroke="#008EDB" stroke-width="1.7549"/>
<line x1="183.829" y1="240.86" x2="176.804" y2="232.488" stroke="#008EDB" stroke-width="1.7549"/>
<line x1="207.162" y1="241.077" x2="201.697" y2="231.612" stroke="#008EDB" stroke-width="1.7549"/>
<line x1="230.391" y1="241.28" x2="226.653" y2="231.01" stroke="#008EDB" stroke-width="1.7549"/>
<line x1="253.562" y1="241.474" x2="251.665" y2="230.71" stroke="#008EDB" stroke-width="1.7549"/>
<line x1="64.4721" y1="236.734" x2="53.5428" y2="236.734" stroke="#008EDB" stroke-width="1.7549"/>
<line x1="88.7855" y1="237.746" x2="78.0223" y2="235.848" stroke="#008EDB" stroke-width="1.7549"/>
<line x1="112.86" y1="238.73" x2="102.59" y2="234.992" stroke="#008EDB" stroke-width="1.7549"/>
<line x1="1.60252" y1="255.143" x2="12.3657" y2="253.245" stroke="#008EDB" stroke-width="1.7549"/>
<line x1="112.118" y1="258.475" x2="102.653" y2="253.011" stroke="#008EDB" stroke-width="1.7549"/>
<line x1="135.763" y1="259.412" x2="127.391" y2="252.387" stroke="#008EDB" stroke-width="1.7549"/>
<line x1="159.236" y1="259.987" x2="152.211" y2="251.615" stroke="#008EDB" stroke-width="1.7549"/>
<line x1="182.569" y1="260.204" x2="177.104" y2="250.739" stroke="#008EDB" stroke-width="1.7549"/>
<line x1="205.801" y1="260.406" x2="202.063" y2="250.136" stroke="#008EDB" stroke-width="1.7549"/>
<line x1="228.973" y1="260.6" x2="227.075" y2="249.837" stroke="#008EDB" stroke-width="1.7549"/>
<line x1="252.127" y1="260.448" x2="252.127" y2="249.519" stroke="#008EDB" stroke-width="1.7549"/>
<line x1="39.8829" y1="255.86" x2="28.9536" y2="255.86" stroke="#008EDB" stroke-width="1.7549"/>
<line x1="64.1963" y1="256.872" x2="53.4331" y2="254.974" stroke="#008EDB" stroke-width="1.7549"/>
<line x1="88.271" y1="257.857" x2="78.0009" y2="254.119" stroke="#008EDB" stroke-width="1.7549"/>
<line x1="87.5257" y1="277.602" x2="78.0607" y2="272.137" stroke="#008EDB" stroke-width="1.7549"/>
<line x1="111.174" y1="278.538" x2="102.802" y2="271.513" stroke="#008EDB" stroke-width="1.7549"/>
<line x1="134.647" y1="279.114" x2="127.622" y2="270.741" stroke="#008EDB" stroke-width="1.7549"/>
<line x1="157.98" y1="279.329" x2="152.515" y2="269.864" stroke="#008EDB" stroke-width="1.7549"/>
<line x1="181.209" y1="279.533" x2="177.471" y2="269.262" stroke="#008EDB" stroke-width="1.7549"/>
<line x1="204.381" y1="279.726" x2="202.483" y2="268.963" stroke="#008EDB" stroke-width="1.7549"/>
<line x1="227.534" y1="279.573" x2="227.534" y2="268.644" stroke="#008EDB" stroke-width="1.7549"/>
<line x1="250.717" y1="279.421" x2="252.615" y2="268.658" stroke="#008EDB" stroke-width="1.7549"/>
<line x1="15.2903" y1="274.987" x2="4.36102" y2="274.987" stroke="#008EDB" stroke-width="1.7549"/>
<line x1="39.6037" y1="275.998" x2="28.8405" y2="274.1" stroke="#008EDB" stroke-width="1.7549"/>
<line x1="63.6784" y1="276.983" x2="53.4083" y2="273.245" stroke="#008EDB" stroke-width="1.7549"/>
<line x1="249.376" y1="298.058" x2="253.114" y2="287.788" stroke="#008EDB" stroke-width="1.7549"/>
<line x1="62.9365" y1="296.727" x2="53.4715" y2="291.263" stroke="#008EDB" stroke-width="1.7549"/>
<line x1="86.5812" y1="297.664" x2="78.2089" y2="290.639" stroke="#008EDB" stroke-width="1.7549"/>
<line x1="110.055" y1="298.239" x2="103.029" y2="289.867" stroke="#008EDB" stroke-width="1.7549"/>
<line x1="133.387" y1="298.456" x2="127.923" y2="288.991" stroke="#008EDB" stroke-width="1.7549"/>
<line x1="156.62" y1="298.658" x2="152.882" y2="288.388" stroke="#008EDB" stroke-width="1.7549"/>
<line x1="179.791" y1="298.852" x2="177.894" y2="288.089" stroke="#008EDB" stroke-width="1.7549"/>
<line x1="202.945" y1="298.7" x2="202.945" y2="287.771" stroke="#008EDB" stroke-width="1.7549"/>
<line x1="226.125" y1="298.548" x2="228.023" y2="287.784" stroke="#008EDB" stroke-width="1.7549"/>
<line x1="15.0145" y1="295.124" x2="4.25128" y2="293.226" stroke="#008EDB" stroke-width="1.7549"/>
<line x1="39.0892" y1="296.109" x2="28.819" y2="292.371" stroke="#008EDB" stroke-width="1.7549"/>
<line x1="224.787" y1="317.185" x2="228.525" y2="306.914" stroke="#008EDB" stroke-width="1.7549"/>
<line x1="248.145" y1="316.704" x2="253.609" y2="307.239" stroke="#008EDB" stroke-width="1.7549"/>
<line x1="38.3439" y1="315.854" x2="28.8788" y2="310.389" stroke="#008EDB" stroke-width="1.7549"/>
<line x1="61.992" y1="316.791" x2="53.6197" y2="309.766" stroke="#008EDB" stroke-width="1.7549"/>
<line x1="85.4654" y1="317.366" x2="78.4402" y2="308.993" stroke="#008EDB" stroke-width="1.7549"/>
<line x1="108.798" y1="317.582" x2="103.333" y2="308.117" stroke="#008EDB" stroke-width="1.7549"/>
<line x1="132.027" y1="317.785" x2="128.289" y2="307.515" stroke="#008EDB" stroke-width="1.7549"/>
<line x1="155.199" y1="317.979" x2="153.301" y2="307.216" stroke="#008EDB" stroke-width="1.7549"/>
<line x1="178.352" y1="317.827" x2="178.352" y2="306.897" stroke="#008EDB" stroke-width="1.7549"/>
<line x1="201.536" y1="317.674" x2="203.434" y2="306.911" stroke="#008EDB" stroke-width="1.7549"/>
<line x1="14.4966" y1="315.236" x2="4.22644" y2="311.498" stroke="#008EDB" stroke-width="1.7549"/>
<line x1="200.194" y1="336.311" x2="203.932" y2="326.041" stroke="#008EDB" stroke-width="1.7549"/>
<line x1="223.556" y1="335.831" x2="229.02" y2="326.366" stroke="#008EDB" stroke-width="1.7549"/>
<line x1="247.064" y1="335.363" x2="254.089" y2="326.991" stroke="#008EDB" stroke-width="1.7549"/>
<line x1="13.7547" y1="334.98" x2="4.28968" y2="329.516" stroke="#008EDB" stroke-width="1.7549"/>
<line x1="37.3994" y1="335.917" x2="29.0271" y2="328.891" stroke="#008EDB" stroke-width="1.7549"/>
<line x1="60.8728" y1="336.491" x2="53.8476" y2="328.119" stroke="#008EDB" stroke-width="1.7549"/>
<line x1="84.2054" y1="336.708" x2="78.7408" y2="327.243" stroke="#008EDB" stroke-width="1.7549"/>
<line x1="107.438" y1="336.911" x2="103.7" y2="326.641" stroke="#008EDB" stroke-width="1.7549"/>
<line x1="130.61" y1="337.105" x2="128.712" y2="326.342" stroke="#008EDB" stroke-width="1.7549"/>
<line x1="153.763" y1="336.952" x2="153.763" y2="326.023" stroke="#008EDB" stroke-width="1.7549"/>
<line x1="176.943" y1="336.8" x2="178.841" y2="326.037" stroke="#008EDB" stroke-width="1.7549"/>
<line x1="175.605" y1="355.437" x2="179.343" y2="345.167" stroke="#008EDB" stroke-width="1.7549"/>
<line x1="198.963" y1="354.957" x2="204.428" y2="345.492" stroke="#008EDB" stroke-width="1.7549"/>
<line x1="222.471" y1="354.49" x2="229.496" y2="346.118" stroke="#008EDB" stroke-width="1.7549"/>
<line x1="246.161" y1="353.699" x2="254.533" y2="346.674" stroke="#008EDB" stroke-width="1.7549"/>
<line x1="12.8102" y1="355.043" x2="4.43789" y2="348.018" stroke="#008EDB" stroke-width="1.7549"/>
<line x1="36.2836" y1="355.618" x2="29.2584" y2="347.246" stroke="#008EDB" stroke-width="1.7549"/>
<line x1="59.6162" y1="355.835" x2="54.1516" y2="346.37" stroke="#008EDB" stroke-width="1.7549"/>
<line x1="82.8452" y1="356.037" x2="79.1072" y2="345.767" stroke="#008EDB" stroke-width="1.7549"/>
<line x1="106.017" y1="356.231" x2="104.119" y2="345.468" stroke="#008EDB" stroke-width="1.7549"/>
<line x1="129.17" y1="356.079" x2="129.17" y2="345.15" stroke="#008EDB" stroke-width="1.7549"/>
<line x1="152.354" y1="355.926" x2="154.252" y2="345.163" stroke="#008EDB" stroke-width="1.7549"/>
</g>
</svg>
