<svg width="25" height="25" viewBox="0 0 25 25" fill="none" xmlns="http://www.w3.org/2000/svg">
<g clip-path="url(#clip0_514_1406)">
<path d="M12.7627 24.168C19.3901 24.168 24.7627 18.7954 24.7627 12.168C24.7627 5.54055 19.3901 0.167969 12.7627 0.167969C6.13528 0.167969 0.762695 5.54055 0.762695 12.168C0.762695 18.7954 6.13528 24.168 12.7627 24.168Z" fill="#F0F0F0"/>
<path d="M12.7629 0.166992C8.00536 0.166992 3.89461 2.93566 1.95361 6.94962H23.5721C21.6312 2.93566 17.5204 0.166992 12.7629 0.166992Z" fill="#338AF3"/>
<path d="M12.7634 24.1669C17.5209 24.1669 21.6317 21.3982 23.5727 17.3843H1.9541C3.8951 21.3982 8.00585 24.1669 12.7634 24.1669Z" fill="#338AF3"/>
<path d="M16.3491 12.1682L14.8835 12.8576L15.6639 14.277L14.0725 13.9725L13.8709 15.5801L12.7624 14.3977L11.6539 15.5801L11.4523 13.9725L9.86091 14.2769L10.6413 12.8576L9.17578 12.1682L10.6413 11.4788L9.86091 10.0596L11.4523 10.364L11.654 8.75635L12.7624 9.93872L13.8709 8.75635L14.0725 10.364L15.664 10.0596L14.8836 11.4789L16.3491 12.1682Z" fill="#FFDA44"/>
</g>
<defs>
<clipPath id="clip0_514_1406">
<rect width="24" height="24" fill="white" transform="translate(0.762695 0.167969)"/>
</clipPath>
</defs>
</svg>
