<svg width="41" height="41" viewBox="0 0 41 41" fill="none" xmlns="http://www.w3.org/2000/svg">
<g clip-path="url(#clip0_68_1298)">
<path d="M37.7953 11.5509C36.8712 9.76035 35.6599 8.07973 34.1589 6.57879C32.6579 5.07777 30.9772 3.86645 29.1867 2.94238L15.097 15.8022L2.23706 29.892C3.1612 31.6825 4.37253 33.3632 5.87347 34.8642C7.3744 36.3651 9.05511 37.5764 10.8456 38.5006L24.9353 25.6407L37.7953 11.5509Z" fill="#FFDA44"/>
<path d="M5.87436 34.8626C6.71334 35.7016 7.60857 36.4499 8.54756 37.1087L36.4057 9.25044C35.747 8.31146 34.9987 7.41622 34.1597 6.57724C33.3207 5.73825 32.4255 4.99005 31.4865 4.3313L3.62842 32.1894C4.28709 33.1283 5.03529 34.0236 5.87436 34.8626Z" fill="#D80027"/>
<path d="M5.87395 6.5774C-0.435968 12.8873 -1.6473 22.3637 2.23755 29.8907L29.1872 2.94107C21.6602 -0.943697 12.1838 0.267787 5.87395 6.5774Z" fill="#338AF3"/>
<path d="M34.1591 34.8621C40.469 28.5522 41.6802 19.0758 37.7956 11.5488L10.8459 38.4985C18.3729 42.3832 27.8494 41.172 34.1591 34.8621Z" fill="#338AF3"/>
<path d="M10.6751 6.80542L11.7544 10.1271H15.2469L12.4214 12.1799L13.5006 15.5014L10.6751 13.4485L7.84952 15.5014L8.9289 12.1799L6.10327 10.1271H9.59577L10.6751 6.80542Z" fill="#FFDA44"/>
</g>
<defs>
<clipPath id="clip0_68_1298">
<rect width="40" height="40" fill="white" transform="translate(0.0166016 0.720215)"/>
</clipPath>
</defs>
</svg>
