<svg width="25" height="25" viewBox="0 0 25 25" fill="none" xmlns="http://www.w3.org/2000/svg">
<g clip-path="url(#clip0_514_1434)">
<path d="M12.8516 24.168C19.479 24.168 24.8516 18.7954 24.8516 12.168C24.8516 5.54055 19.479 0.167969 12.8516 0.167969C6.22414 0.167969 0.851562 5.54055 0.851562 12.168C0.851562 18.7954 6.22414 24.168 12.8516 24.168Z" fill="#F0F0F0"/>
<path d="M24.8516 12.1682C24.8516 18.7955 19.4789 24.1682 12.8516 24.1682C6.22419 24.1682 0.851562 18.7955 0.851562 12.1682C0.851562 5.54078 12.8516 12.1682 12.8516 12.1682C12.8516 12.1682 21.9341 12.1682 24.8516 12.1682Z" fill="#D80027"/>
<path d="M0.851562 12.168C0.851562 5.54059 6.22419 0.167969 12.8516 0.167969C12.8516 4.73148 12.8516 12.168 12.8516 12.168C12.8516 12.168 5.02545 12.168 0.851562 12.168Z" fill="#0052B4"/>
<path d="M7.9942 4.34131L8.77125 6.73278H11.2858L9.25148 8.21075L10.0285 10.6022L7.9942 9.1242L5.95992 10.6022L6.73692 8.21075L4.70264 6.73278H7.21715L7.9942 4.34131Z" fill="#F0F0F0"/>
</g>
<defs>
<clipPath id="clip0_514_1434">
<rect width="24" height="24" fill="white" transform="translate(0.851562 0.167969)"/>
</clipPath>
</defs>
</svg>
