<svg width="41" height="41" viewBox="0 0 41 41" fill="none" xmlns="http://www.w3.org/2000/svg">
<g id="GA" clip-path="url(#clip0_27_5030)">
<path id="Vector" d="M38.9712 27.6785C39.7752 25.5119 40.2152 23.1684 40.2152 20.722C40.2152 18.2756 39.7752 15.9322 38.9712 13.7655L20.2152 12.0264L1.45919 13.7655C0.655288 15.9322 0.21521 18.2756 0.21521 20.722C0.21521 23.1684 0.655288 25.5119 1.45919 27.6785L20.2152 29.4176L38.9712 27.6785Z" fill="#FFDA44"/>
<path id="Vector_2" d="M20.2165 40.7196C28.8158 40.7196 36.1467 35.292 38.9725 27.676H1.46045C4.28639 35.292 11.6172 40.7196 20.2165 40.7196Z" fill="#0052B4"/>
<path id="Vector_3" d="M20.2165 0.721436C11.6172 0.721436 4.28639 6.14894 1.46045 13.765H38.9726C36.1467 6.14894 28.8158 0.721436 20.2165 0.721436Z" fill="#6DA544"/>
</g>
<defs>
<clipPath id="clip0_27_5030">
<rect width="40" height="40" fill="white" transform="translate(0.215942 0.720215)"/>
</clipPath>
</defs>
</svg>
