<svg width="41" height="41" viewBox="0 0 41 41" fill="none" xmlns="http://www.w3.org/2000/svg">
<g id="GH" clip-path="url(#clip0_27_4965)">
<path id="Vector" d="M0.369995 20.9052C0.369995 23.3516 0.810073 25.695 1.61398 27.8617L20.37 28.7313L39.126 27.8618C39.93 25.695 40.37 23.3516 40.37 20.9052C40.37 18.4588 39.93 16.1154 39.126 13.9487L20.37 13.0791L1.61398 13.9486C0.810073 16.1154 0.369995 18.4588 0.369995 20.9052Z" fill="#FFDA44"/>
<path id="Vector_2" d="M20.3697 0.905273C11.7704 0.905273 4.43951 6.33277 1.61365 13.9488H39.1258C36.2998 6.33277 28.969 0.905273 20.3697 0.905273Z" fill="#D80027"/>
<path id="Vector_3" d="M39.1259 27.8635H1.61389C4.43975 35.4795 11.7706 40.907 20.3699 40.907C28.9692 40.907 36.3001 35.4795 39.1259 27.8635Z" fill="#496E2D"/>
<path id="Vector_4" d="M20.3697 13.9504L22.0962 19.2645H27.6844L23.1638 22.5491L24.8904 27.8634L20.3697 24.579L15.849 27.8634L17.5758 22.5491L13.0553 19.2645H18.6431L20.3697 13.9504Z" fill="black"/>
</g>
<defs>
<clipPath id="clip0_27_4965">
<rect width="40" height="40" fill="white" transform="translate(0.369995 0.906738)"/>
</clipPath>
</defs>
</svg>
