<svg width="41" height="41" viewBox="0 0 41 41" fill="none" xmlns="http://www.w3.org/2000/svg">
<g id="GQ" clip-path="url(#clip0_68_1282)">
<path id="Vector" d="M20.7722 40.9067C31.8179 40.9067 40.7722 31.9524 40.7722 20.9067C40.7722 9.86104 31.8179 0.906738 20.7722 0.906738C9.72652 0.906738 0.772217 9.86104 0.772217 20.9067C0.772217 31.9524 9.72652 40.9067 20.7722 40.9067Z" fill="#F0F0F0"/>
<path id="Vector_2" d="M12.9465 13.9498H39.5285C36.7027 6.33375 29.3718 0.90625 20.7726 0.90625C15.2496 0.90625 10.2502 3.14523 6.6311 6.76477L12.9465 13.9498Z" fill="#6DA544"/>
<path id="Vector_3" d="M12.9465 27.8638H39.5285C36.7027 35.4798 29.3718 40.9073 20.7726 40.9073C15.2496 40.9073 10.2502 38.6683 6.6311 35.0488L12.9465 27.8638Z" fill="#D80027"/>
<path id="Vector_4" d="M6.6308 6.76587C-1.17967 14.5763 -1.17967 27.2397 6.6308 35.0502C9.85838 31.8227 12.9625 28.7185 20.773 20.9081L6.6308 6.76587Z" fill="#0052B4"/>
<path id="Vector_5" d="M24.2505 17.428V21.7758C24.2505 24.4383 27.7288 25.2542 27.7288 25.2542C27.7288 25.2542 31.2071 24.4383 31.2071 21.7758V17.428H24.2505Z" fill="#DEDDE0"/>
<path id="Vector_6" d="M28.5978 20.9939H26.8586V23.5156H28.5978V20.9939Z" fill="#786145"/>
<path id="Vector_7" d="M29.4682 20.0382C29.4682 19.0777 28.6896 18.2991 27.729 18.2991C26.7685 18.2991 25.9899 19.0777 25.9899 20.0382C25.5097 20.0382 25.1204 20.4275 25.1204 20.9078C25.1204 21.388 25.5097 21.7773 25.9899 21.7773C26.275 21.7773 29.183 21.7773 29.4682 21.7773C29.9484 21.7773 30.3377 21.388 30.3377 20.9078C30.3377 20.4275 29.9485 20.0382 29.4682 20.0382Z" fill="#6DA544"/>
</g>
<defs>
<clipPath id="clip0_68_1282">
<rect width="40" height="40" fill="white" transform="translate(0.772217 0.906738)"/>
</clipPath>
</defs>
</svg>
