<svg width="25" height="25" viewBox="0 0 25 25" fill="none" xmlns="http://www.w3.org/2000/svg">
<g clip-path="url(#clip0_514_1502)">
<path d="M12.8667 24.4883C19.4941 24.4883 24.8667 19.1157 24.8667 12.4883C24.8667 5.86086 19.4941 0.488281 12.8667 0.488281C6.23928 0.488281 0.866699 5.86086 0.866699 12.4883C0.866699 19.1157 6.23928 24.4883 12.8667 24.4883Z" fill="#F0F0F0"/>
<path d="M24.8666 12.488C24.8666 7.73046 22.0979 3.61971 18.084 1.67871V23.2972C22.0979 21.3563 24.8666 17.2455 24.8666 12.488Z" fill="#D80027"/>
<path d="M0.866699 12.488C0.866699 17.2455 3.63537 21.3563 7.64932 23.2973V1.67871C3.63537 3.61971 0.866699 7.73046 0.866699 12.488Z" fill="#6DA544"/>
<path d="M9.73633 12.4873C9.73633 14.2162 11.1379 15.6178 12.8668 15.6178C14.5957 15.6178 15.9972 14.2162 15.9972 12.4873V11.4438H9.73633V12.4873Z" fill="#6DA544"/>
<path d="M17.0403 10.4019H13.9098C13.9098 9.8256 13.4426 9.3584 12.8663 9.3584C12.29 9.3584 11.8228 9.8256 11.8228 10.4019H8.69238C8.69238 10.9782 9.19437 11.4454 9.7706 11.4454H9.73587C9.73587 12.0217 10.203 12.4888 10.7794 12.4888C10.7794 13.0652 11.2465 13.5323 11.8228 13.5323H13.9098C14.4861 13.5323 14.9533 13.0652 14.9533 12.4888C15.5296 12.4888 15.9968 12.0217 15.9968 11.4454H15.962C16.5383 11.4454 17.0403 10.9782 17.0403 10.4019Z" fill="#FF9811"/>
</g>
<defs>
<clipPath id="clip0_514_1502">
<rect width="24" height="24" fill="white" transform="translate(0.866699 0.488281)"/>
</clipPath>
</defs>
</svg>
