<svg width="25" height="25" viewBox="0 0 25 25" fill="none" xmlns="http://www.w3.org/2000/svg">
<g clip-path="url(#clip0_514_1523)">
<path d="M12.9556 24.4883C19.583 24.4883 24.9556 19.1157 24.9556 12.4883C24.9556 5.86086 19.583 0.488281 12.9556 0.488281C6.32815 0.488281 0.955566 5.86086 0.955566 12.4883C0.955566 19.1157 6.32815 24.4883 12.9556 24.4883Z" fill="#F0F0F0"/>
<path d="M24.9555 12.4899C24.9555 7.33036 21.699 2.9318 17.1294 1.23633V23.7436C21.699 22.048 24.9555 17.6495 24.9555 12.4899Z" fill="#D80027"/>
<path d="M0.955566 12.4889C0.955566 17.6485 4.21207 22.047 8.78168 23.7426V1.23535C4.21207 2.93082 0.955566 7.32938 0.955566 12.4889Z" fill="#D80027"/>
</g>
<defs>
<clipPath id="clip0_514_1523">
<rect width="24" height="24" fill="white" transform="translate(0.955566 0.488281)"/>
</clipPath>
</defs>
</svg>
