<svg width="41" height="41" viewBox="0 0 41 41" fill="none" xmlns="http://www.w3.org/2000/svg">
<g clip-path="url(#clip0_27_5083)">
<path d="M20.7722 40.7202C31.8179 40.7202 40.7722 31.7659 40.7722 20.7202C40.7722 9.67452 31.8179 0.720215 20.7722 0.720215C9.72652 0.720215 0.772217 9.67452 0.772217 20.7202C0.772217 31.7659 9.72652 40.7202 20.7722 40.7202Z" fill="#FFDA44"/>
<path d="M20.7724 0.720947C20.7578 0.721104 19.9028 8.72095 19.9028 8.72095H36.7733C33.1245 3.86337 27.3155 0.720947 20.7724 0.720947Z" fill="#496E2D"/>
<path d="M20.7726 40.721C27.3157 40.721 33.1247 37.5785 36.7734 32.7209H4.77173C8.42048 37.5785 14.2295 40.721 20.7726 40.721Z" fill="#496E2D"/>
<path d="M40.3719 16.7209H19.9028L20.7724 24.7209H40.3719C40.6344 23.4285 40.7724 22.0909 40.7724 20.7209C40.7724 19.351 40.6342 18.0134 40.3719 16.7209Z" fill="#496E2D"/>
<path d="M20.7722 24.7202C20.7722 20.5463 20.7722 5.41584 20.7722 0.720215C9.72659 0.720215 0.772217 9.67459 0.772217 20.7202C0.772217 22.0901 0.910342 23.4278 1.17269 24.7202H20.7722Z" fill="#D80027"/>
<path d="M11.8073 10.2839L13.1023 14.2695H17.2933L13.9029 16.733L15.1978 20.7187L11.8073 18.2554L8.41685 20.7187L9.71192 16.733L6.32153 14.2695H10.5124L11.8073 10.2839Z" fill="#F0F0F0"/>
</g>
<defs>
<clipPath id="clip0_27_5083">
<rect width="40" height="40" fill="white" transform="translate(0.772217 0.720215)"/>
</clipPath>
</defs>
</svg>
