<svg width="25" height="25" viewBox="0 0 25 25" fill="none" xmlns="http://www.w3.org/2000/svg">
<g clip-path="url(#clip0_514_1566)">
<path d="M12.8667 24.7944C19.4941 24.7944 24.8667 19.4219 24.8667 12.7944C24.8667 6.16702 19.4941 0.794434 12.8667 0.794434C6.23928 0.794434 0.866699 6.16702 0.866699 12.7944C0.866699 19.4219 6.23928 24.7944 12.8667 24.7944Z" fill="#D80027"/>
<path d="M12.3754 10.5996L13.36 11.9564L14.9546 11.4394L13.9684 12.795L14.9529 14.1518L13.3589 13.6328L12.3728 14.9884L12.3738 13.3121L10.7798 12.7931L12.3744 12.276L12.3754 10.5996Z" fill="#F0F0F0"/>
<path d="M9.68868 16.1849C7.81575 16.1849 6.29737 14.6665 6.29737 12.7936C6.29737 10.9206 7.81575 9.40225 9.68868 9.40225C10.2727 9.40225 10.8221 9.54996 11.3018 9.80988C10.5493 9.07385 9.52003 8.61963 8.38434 8.61963C6.07912 8.61963 4.21045 10.4883 4.21045 12.7935C4.21045 15.0987 6.07917 16.9674 8.38434 16.9674C9.52012 16.9674 10.5493 16.5131 11.3018 15.7772C10.8221 16.0372 10.2727 16.1849 9.68868 16.1849Z" fill="#F0F0F0"/>
</g>
<defs>
<clipPath id="clip0_514_1566">
<rect width="24" height="24" fill="white" transform="translate(0.866699 0.794434)"/>
</clipPath>
</defs>
</svg>
