<svg width="1512" height="907" viewBox="0 0 1512 907" fill="none" xmlns="http://www.w3.org/2000/svg">
<g opacity="0.87">
<path d="M903.349 148.377L376.789 512.362C376.496 512.564 376.593 513.019 376.942 513.084L1868.31 793.045C1868.5 793.08 1868.69 792.975 1868.76 792.795L2163.77 23.6586C2163.87 23.3807 2163.65 23.0879 2163.35 23.1173L903.536 148.308C903.469 148.315 903.404 148.339 903.349 148.377Z" fill="#D9D9D9" fill-opacity="0.03"/>
<path d="M903.349 125.324L376.789 489.309C376.496 489.511 376.593 489.965 376.942 490.031L1868.31 769.992C1868.5 770.027 1868.69 769.922 1868.76 769.742L2163.77 0.605407C2163.87 0.327506 2163.65 0.034689 2163.35 0.0641215L903.536 125.255C903.469 125.262 903.404 125.286 903.349 125.324Z" fill="#008EDB" fill-opacity="0.03"/>
</g>
<path d="M439.651 731.729L966.211 367.744C966.504 367.542 966.407 367.088 966.058 367.022L-525.309 87.0615C-525.499 87.0259 -525.687 87.131 -525.757 87.3114L-820.768 856.448C-820.874 856.726 -820.651 857.018 -820.355 856.989L439.464 731.798C439.531 731.791 439.596 731.767 439.651 731.729Z" fill="#D9D9D9" fill-opacity="0.03"/>
<path d="M439.651 781.176L966.211 417.191C966.504 416.989 966.407 416.535 966.058 416.469L-525.309 136.508C-525.499 136.473 -525.687 136.578 -525.757 136.758L-820.768 905.894C-820.874 906.172 -820.651 906.465 -820.355 906.436L439.464 781.245C439.531 781.238 439.596 781.214 439.651 781.176Z" fill="#008EDB" fill-opacity="0.03"/>
</svg>
