<svg width="371" height="246" viewBox="0 0 371 246" fill="none" xmlns="http://www.w3.org/2000/svg">
<g filter="url(#filter0_d_5263_4670)">
<path d="M197.246 154.205C225.965 154.205 249.246 177.486 249.246 206.205C249.246 234.924 225.965 258.205 197.246 258.205C168.527 258.205 145.246 234.924 145.246 206.205C145.246 177.486 168.527 154.205 197.246 154.205Z" fill="#0052B4" stroke="white" stroke-width="4"/>
<path d="M197.248 175.77L198.867 180.752H204.105L199.867 183.831L201.486 188.814L197.248 185.734L193.01 188.814L194.629 183.831L190.391 180.752H195.629L197.248 175.77Z" fill="#FFDA44"/>
<path d="M175.726 184.684L180.394 187.062L184.098 183.358L183.278 188.532L187.946 190.91L182.772 191.73L181.953 196.904L179.574 192.236L174.4 193.056L178.104 189.352L175.726 184.684Z" fill="#FFDA44"/>
<path d="M166.812 206.205L171.795 204.586V199.347L174.874 203.586L179.856 201.967L176.777 206.205L179.856 210.443L174.874 208.824L171.795 213.062V207.824L166.812 206.205Z" fill="#FFDA44"/>
<path d="M175.726 227.726L178.104 223.058L174.4 219.353L179.574 220.173L181.952 215.506L182.772 220.68L187.946 221.499L183.279 223.877L184.098 229.051L180.394 225.347L175.726 227.726Z" fill="#FFDA44"/>
<path d="M197.248 236.64L195.629 231.657H190.391L194.629 228.578L193.01 223.596L197.248 226.675L201.486 223.596L199.867 228.578L204.105 231.657H198.867L197.248 236.64Z" fill="#FFDA44"/>
<path d="M218.769 227.726L214.101 225.347L210.396 229.052L211.216 223.877L206.549 221.499L211.723 220.68L212.542 215.506L214.92 220.173L220.094 219.353L216.39 223.058L218.769 227.726Z" fill="#FFDA44"/>
<path d="M227.682 206.205L222.7 207.824V213.062L219.621 208.824L214.639 210.443L217.718 206.205L214.639 201.967L219.621 203.586L222.7 199.347V204.586L227.682 206.205Z" fill="#FFDA44"/>
<path d="M218.769 184.684L216.39 189.352L220.094 193.056L214.92 192.236L212.542 196.904L211.723 191.73L206.549 190.91L211.216 188.532L210.396 183.359L214.101 187.062L218.769 184.684Z" fill="#FFDA44"/>
</g>
<g filter="url(#filter1_d_5263_4670)">
<path d="M265.246 193.205C288.442 193.205 307.246 212.009 307.246 235.205C307.246 258.401 288.442 277.205 265.246 277.205C242.05 277.205 223.246 258.401 223.246 235.205C223.246 212.009 242.05 193.205 265.246 193.205Z" fill="#F0F0F0" stroke="white" stroke-width="4"/>
<path d="M307.246 235.205C307.246 242.478 305.395 249.324 302.139 255.293L301.632 256.222L300.579 256.325L265.443 259.804L265.246 259.823L265.049 259.804L229.913 256.325L228.86 256.222L228.354 255.293C225.097 249.324 223.246 242.478 223.246 235.205V233.371L225.073 233.212L265.073 229.734L265.246 229.719L265.419 229.734L305.419 233.212L307.246 233.371V235.205Z" fill="#FFDA44" stroke="white" stroke-width="4"/>
<path d="M300.382 216.074C293.598 203.641 280.408 195.205 265.246 195.205C250.084 195.205 236.894 203.641 230.11 216.074C227.009 221.757 225.246 228.275 225.246 235.205H305.246C305.246 228.275 303.483 221.757 300.382 216.074Z" fill="#338AF3"/>
<path d="M270.463 218.614L275.348 220.912L272.747 225.644L278.051 224.629L278.724 229.988L282.418 226.046L286.113 229.988L286.785 224.629L292.09 225.643L289.489 220.912L294.374 218.614L289.489 216.317L292.09 211.585L286.786 212.6L286.113 207.242L282.418 211.183L278.724 207.242L278.051 212.6L272.747 211.585L275.348 216.317L270.463 218.614Z" fill="#FFDA44"/>
</g>
<g filter="url(#filter2_d_5263_4670)">
<path d="M108.246 189.205C136.965 189.205 160.246 212.486 160.246 241.205C160.246 269.924 136.965 293.205 108.246 293.205C79.5273 293.205 56.2461 269.924 56.2461 241.205C56.2461 212.486 79.5273 189.205 108.246 189.205Z" fill="#F0F0F0" stroke="white" stroke-width="4"/>
<path d="M108.246 191.205C86.7473 191.205 68.4201 204.774 61.3555 223.814H155.136C148.071 204.774 129.744 191.205 108.246 191.205Z" fill="#D80027"/>
<path d="M125.638 235.77H112.595C112.595 233.369 110.648 231.422 108.247 231.422C105.846 231.422 103.899 233.369 103.899 235.77H90.8555C90.8555 238.171 92.9471 240.118 95.3482 240.118H95.2033C95.2033 242.519 97.1498 244.466 99.5512 244.466C99.5512 246.867 101.498 248.814 103.899 248.814H112.595C114.996 248.814 116.943 246.867 116.943 244.466C119.344 244.466 121.29 242.519 121.29 240.118H121.146C123.547 240.118 125.638 238.171 125.638 235.77Z" fill="#FF9811"/>
</g>
<g filter="url(#filter3_d_5263_4670)">
<path d="M326.246 143.205C354.965 143.205 378.246 166.486 378.246 195.205C378.246 223.924 354.965 247.205 326.246 247.205C297.527 247.205 274.246 223.924 274.246 195.205C274.246 166.486 297.527 143.205 326.246 143.205Z" fill="#F0F0F0" stroke="white" stroke-width="4"/>
<path d="M286.582 164.764C282.655 169.874 279.693 175.763 277.969 182.162H303.98L286.582 164.764Z" fill="#0052B4"/>
<path d="M374.525 182.162C372.8 175.764 369.838 169.874 365.911 164.764L348.514 182.162H374.525Z" fill="#0052B4"/>
<path d="M277.969 208.249C279.693 214.647 282.655 220.536 286.582 225.646L303.979 208.249H277.969Z" fill="#0052B4"/>
<path d="M356.687 155.541C351.577 151.613 345.687 148.652 339.289 146.927V172.938L356.687 155.541Z" fill="#0052B4"/>
<path d="M295.805 234.869C300.915 238.796 306.804 241.758 313.202 243.482V217.471L295.805 234.869Z" fill="#0052B4"/>
<path d="M313.202 146.927C306.804 148.652 300.914 151.613 295.805 155.541L313.202 172.938V146.927Z" fill="#0052B4"/>
<path d="M339.289 243.482C345.687 241.758 351.577 238.796 356.687 234.869L339.289 217.471V243.482Z" fill="#0052B4"/>
<path d="M348.514 208.249L365.911 225.646C369.838 220.536 372.8 214.647 374.525 208.249H348.514Z" fill="#0052B4"/>
<path d="M375.823 188.683H332.768H332.768V145.628C330.633 145.35 328.456 145.205 326.246 145.205C324.035 145.205 321.859 145.35 319.724 145.628V188.683V188.683H276.669C276.391 190.818 276.246 192.994 276.246 195.205C276.246 197.416 276.391 199.592 276.669 201.727H319.724H319.724V244.782C321.859 245.06 324.035 245.205 326.246 245.205C328.456 245.205 330.633 245.06 332.768 244.782V201.727V201.727H375.823C376.101 199.592 376.246 197.416 376.246 195.205C376.246 192.994 376.101 190.818 375.823 188.683Z" fill="#D80027"/>
<path d="M339.289 208.249L361.601 230.56C362.627 229.535 363.606 228.462 364.54 227.35L345.438 208.248H339.289V208.249Z" fill="#D80027"/>
<path d="M313.203 208.249H313.202L290.891 230.56C291.916 231.586 292.989 232.565 294.101 233.499L313.203 214.397V208.249Z" fill="#D80027"/>
<path d="M313.202 182.162V182.161L290.89 159.849C289.864 160.875 288.885 161.948 287.951 163.059L307.053 182.161H313.202V182.162Z" fill="#D80027"/>
<path d="M339.289 182.162L361.601 159.85C360.575 158.823 359.503 157.844 358.391 156.911L339.289 176.013V182.162Z" fill="#D80027"/>
</g>
<g filter="url(#filter4_d_5263_4670)">
<path d="M172.246 91.2048C195.442 91.2048 214.246 110.009 214.246 133.205C214.246 156.401 195.442 175.205 172.246 175.205C149.05 175.205 130.246 156.401 130.246 133.205C130.246 110.009 149.05 91.2048 172.246 91.2048Z" fill="#F0F0F0" stroke="white" stroke-width="4"/>
<path d="M132.246 133.205C132.246 138.098 133.126 142.784 134.734 147.118L172.246 148.857L209.758 147.118C211.366 142.784 212.246 138.098 212.246 133.205C212.246 128.312 211.366 123.625 209.758 119.292L172.246 117.553L134.734 119.292C133.126 123.625 132.246 128.312 132.246 133.205V133.205Z" fill="#FFDA44"/>
<path d="M172.246 93.2048C155.048 93.2048 140.386 104.06 134.734 119.292H209.759C204.107 104.06 189.445 93.2048 172.246 93.2048Z" fill="#D80027"/>
<path d="M209.758 147.118H134.734C140.386 162.35 155.048 173.205 172.246 173.205C189.445 173.205 204.107 162.35 209.758 147.118Z" fill="#496E2D"/>
<path d="M172.246 119.292L175.699 129.92H186.875L177.834 136.489L181.287 147.118L172.246 140.549L163.205 147.118L166.658 136.489L157.617 129.92H168.793L172.246 119.292Z" fill="black"/>
</g>
<g filter="url(#filter5_d_5263_4670)">
<path d="M125.246 125.205C148.442 125.205 167.246 144.009 167.246 167.205C167.246 190.401 148.442 209.205 125.246 209.205C102.05 209.205 83.2461 190.401 83.2461 167.205C83.2461 144.009 102.05 125.205 125.246 125.205Z" fill="#F0F0F0" stroke="white" stroke-width="4"/>
<path d="M85.2461 167.205C85.2461 184.404 96.1011 199.065 111.333 204.717V129.693C96.1011 135.345 85.2461 150.006 85.2461 167.205Z" fill="#6DA544"/>
<path d="M165.245 167.205C165.245 150.006 154.39 135.345 139.158 129.693V204.717C154.39 199.065 165.245 184.404 165.245 167.205Z" fill="#6DA544"/>
</g>
<g filter="url(#filter6_d_5263_4670)">
<path d="M354.246 47.2048C382.965 47.2048 406.246 70.486 406.246 99.2048C406.246 127.924 382.965 151.205 354.246 151.205C325.527 151.205 302.246 127.924 302.246 99.2048C302.246 70.486 325.527 47.2048 354.246 47.2048Z" fill="#F0F0F0" stroke="white" stroke-width="4"/>
<path d="M354.246 49.2048C334.423 49.2048 317.295 60.741 309.207 77.4658H399.284C391.197 60.741 374.069 49.2048 354.246 49.2048Z" fill="black"/>
<path d="M354.246 149.205C334.423 149.205 317.295 137.669 309.207 120.944H399.284C391.197 137.669 374.069 149.205 354.246 149.205Z" fill="#496E2D"/>
<path d="M401.885 83.9874H306.607C305.076 88.7861 304.246 93.8984 304.246 99.2048C304.246 104.511 305.076 109.624 306.607 114.422H401.885C403.417 109.624 404.246 104.511 404.246 99.2048C404.246 93.8984 403.417 88.7861 401.885 83.9874Z" fill="#A2001D"/>
<path d="M369.814 72.3105L363.893 69.5775L354.245 91.4234L344.597 69.5775L338.676 72.3105L350.654 99.2049L338.676 126.099L344.597 128.832L354.245 106.986L363.893 128.832L369.814 126.099L357.836 99.2049L369.814 72.3105Z" fill="#F0F0F0"/>
<path d="M358.266 74.8864C355.974 72.383 354.244 70.944 354.244 70.944C354.244 70.944 352.515 72.3828 350.223 74.8864V123.523C352.515 126.027 354.244 127.466 354.244 127.466C354.244 127.466 355.974 126.027 358.266 123.523V74.8864Z" fill="#F0F0F0"/>
<path d="M343.377 84.2132V114.196C345.799 118.488 348.764 122.006 350.986 124.338V74.071C348.764 76.4033 345.799 79.9214 343.377 84.2132Z" fill="#A2001D"/>
<path d="M365.117 84.2132C362.694 79.9212 359.73 76.4033 357.508 74.071V124.338C359.729 122.006 362.694 118.488 365.117 114.196V84.2132Z" fill="#A2001D"/>
<path d="M365.115 84.2133V114.196C367.567 109.851 369.463 104.712 369.463 99.2049C369.463 93.6976 367.567 88.559 365.115 84.2133Z" fill="black"/>
<path d="M343.377 84.2133V114.196C340.925 109.851 339.029 104.712 339.029 99.2049C339.029 93.6976 340.925 88.559 343.377 84.2133Z" fill="black"/>
</g>
<g filter="url(#filter7_d_5263_4670)">
<path d="M307.246 67.2048C330.442 67.2048 349.246 86.0089 349.246 109.205C349.246 132.401 330.442 151.205 307.246 151.205C284.05 151.205 265.246 132.401 265.246 109.205C265.246 86.0089 284.05 67.2048 307.246 67.2048Z" fill="#F0F0F0" stroke="white" stroke-width="4"/>
<path d="M347.245 109.205C347.245 93.3464 338.017 79.644 324.637 73.174V145.236C338.017 138.766 347.245 125.063 347.245 109.205Z" fill="#D80027"/>
<path d="M267.246 109.205C267.246 125.063 276.475 138.766 289.855 145.236V73.174C276.475 79.644 267.246 93.3464 267.246 109.205Z" fill="#D80027"/>
<path d="M314.204 114.422L321.16 110.944L317.682 109.205V105.727L310.725 109.205L314.204 102.248H310.725L307.247 97.031L303.769 102.248H300.29L303.769 109.205L296.812 105.727V109.205L293.334 110.944L300.29 114.422L298.551 117.901H305.508V123.118H308.986V117.901H315.943L314.204 114.422Z" fill="#D80027"/>
</g>
<g filter="url(#filter8_d_5263_4670)">
<path d="M245.246 91.2048C273.965 91.2048 297.246 114.486 297.246 143.205C297.246 171.924 273.965 195.205 245.246 195.205C216.527 195.205 193.246 171.924 193.246 143.205C193.246 114.486 216.527 91.2048 245.246 91.2048Z" fill="#F0F0F0" stroke="white" stroke-width="4"/>
<path d="M243.072 143.205H295.246C295.246 138.692 294.645 134.32 293.524 130.161H243.072V143.205Z" fill="#D80027"/>
<path d="M243.072 117.118H287.907C284.847 112.123 280.933 107.709 276.37 104.074H243.072V117.118Z" fill="#D80027"/>
<path d="M245.245 193.205C257.013 193.205 267.829 189.138 276.37 182.335H214.121C222.662 189.138 233.478 193.205 245.245 193.205Z" fill="#D80027"/>
<path d="M202.585 169.292H287.908C290.365 165.282 292.271 160.899 293.524 156.248H196.969C198.222 160.899 200.128 165.282 202.585 169.292Z" fill="#D80027"/>
<path d="M218.407 101.013H222.963L218.725 104.092L220.344 109.074L216.106 105.995L211.868 109.074L213.266 104.77C209.535 107.879 206.264 111.52 203.569 115.578H205.029L202.331 117.538C201.911 118.239 201.507 118.952 201.121 119.675L202.409 123.64L200.006 121.893C199.408 123.159 198.862 124.453 198.371 125.775L199.79 130.144H205.029L200.79 133.223L202.409 138.205L198.171 135.126L195.633 136.97C195.379 139.013 195.246 141.093 195.246 143.205H245.246C245.246 115.591 245.246 112.335 245.246 93.2048C235.369 93.2048 226.161 96.0701 218.407 101.013ZM220.344 138.205L216.106 135.126L211.868 138.205L213.487 133.223L209.249 130.144H214.487L216.106 125.161L217.725 130.144H222.963L218.725 133.223L220.344 138.205ZM218.725 118.657L220.344 123.64L216.106 120.56L211.868 123.64L213.487 118.657L209.249 115.578H214.487L216.106 110.596L217.725 115.578H222.963L218.725 118.657ZM238.279 138.205L234.041 135.126L229.803 138.205L231.422 133.223L227.183 130.144H232.422L234.041 125.161L235.66 130.144H240.898L236.66 133.223L238.279 138.205ZM236.66 118.657L238.279 123.64L234.041 120.56L229.803 123.64L231.422 118.657L227.183 115.578H232.422L234.041 110.596L235.66 115.578H240.898L236.66 118.657ZM236.66 104.092L238.279 109.074L234.041 105.995L229.803 109.074L231.422 104.092L227.183 101.013H232.422L234.041 96.0308L235.66 101.013H240.898L236.66 104.092Z" fill="#0052B4"/>
</g>
<defs>
<filter id="filter0_d_5263_4670" x="89.0003" y="107" width="216.492" height="216.492" filterUnits="userSpaceOnUse" color-interpolation-filters="sRGB">
<feFlood flood-opacity="0" result="BackgroundImageFix"/>
<feColorMatrix in="SourceAlpha" type="matrix" values="0 0 0 0 0 0 0 0 0 0 0 0 0 0 0 0 0 0 127 0" result="hardAlpha"/>
<feOffset dy="9.04097"/>
<feGaussianBlur stdDeviation="27.1229"/>
<feComposite in2="hardAlpha" operator="out"/>
<feColorMatrix type="matrix" values="0 0 0 0 0 0 0 0 0 0.321569 0 0 0 0 0.705882 0 0 0 0.12 0"/>
<feBlend mode="normal" in2="BackgroundImageFix" result="effect1_dropShadow_5263_4670"/>
<feBlend mode="normal" in="SourceGraphic" in2="effect1_dropShadow_5263_4670" result="shape"/>
</filter>
<filter id="filter1_d_5263_4670" x="167" y="146" width="196.492" height="196.492" filterUnits="userSpaceOnUse" color-interpolation-filters="sRGB">
<feFlood flood-opacity="0" result="BackgroundImageFix"/>
<feColorMatrix in="SourceAlpha" type="matrix" values="0 0 0 0 0 0 0 0 0 0 0 0 0 0 0 0 0 0 127 0" result="hardAlpha"/>
<feOffset dy="9.04097"/>
<feGaussianBlur stdDeviation="27.1229"/>
<feComposite in2="hardAlpha" operator="out"/>
<feColorMatrix type="matrix" values="0 0 0 0 0 0 0 0 0 0.321569 0 0 0 0 0.705882 0 0 0 0.12 0"/>
<feBlend mode="normal" in2="BackgroundImageFix" result="effect1_dropShadow_5263_4670"/>
<feBlend mode="normal" in="SourceGraphic" in2="effect1_dropShadow_5263_4670" result="shape"/>
</filter>
<filter id="filter2_d_5263_4670" x="0.000274658" y="142" width="216.492" height="216.492" filterUnits="userSpaceOnUse" color-interpolation-filters="sRGB">
<feFlood flood-opacity="0" result="BackgroundImageFix"/>
<feColorMatrix in="SourceAlpha" type="matrix" values="0 0 0 0 0 0 0 0 0 0 0 0 0 0 0 0 0 0 127 0" result="hardAlpha"/>
<feOffset dy="9.04097"/>
<feGaussianBlur stdDeviation="27.1229"/>
<feComposite in2="hardAlpha" operator="out"/>
<feColorMatrix type="matrix" values="0 0 0 0 0 0 0 0 0 0.321569 0 0 0 0 0.705882 0 0 0 0.12 0"/>
<feBlend mode="normal" in2="BackgroundImageFix" result="effect1_dropShadow_5263_4670"/>
<feBlend mode="normal" in="SourceGraphic" in2="effect1_dropShadow_5263_4670" result="shape"/>
</filter>
<filter id="filter3_d_5263_4670" x="218" y="96" width="216.492" height="216.492" filterUnits="userSpaceOnUse" color-interpolation-filters="sRGB">
<feFlood flood-opacity="0" result="BackgroundImageFix"/>
<feColorMatrix in="SourceAlpha" type="matrix" values="0 0 0 0 0 0 0 0 0 0 0 0 0 0 0 0 0 0 127 0" result="hardAlpha"/>
<feOffset dy="9.04097"/>
<feGaussianBlur stdDeviation="27.1229"/>
<feComposite in2="hardAlpha" operator="out"/>
<feColorMatrix type="matrix" values="0 0 0 0 0 0 0 0 0 0.321569 0 0 0 0 0.705882 0 0 0 0.12 0"/>
<feBlend mode="normal" in2="BackgroundImageFix" result="effect1_dropShadow_5263_4670"/>
<feBlend mode="normal" in="SourceGraphic" in2="effect1_dropShadow_5263_4670" result="shape"/>
</filter>
<filter id="filter4_d_5263_4670" x="74.0003" y="44" width="196.492" height="196.492" filterUnits="userSpaceOnUse" color-interpolation-filters="sRGB">
<feFlood flood-opacity="0" result="BackgroundImageFix"/>
<feColorMatrix in="SourceAlpha" type="matrix" values="0 0 0 0 0 0 0 0 0 0 0 0 0 0 0 0 0 0 127 0" result="hardAlpha"/>
<feOffset dy="9.04097"/>
<feGaussianBlur stdDeviation="27.1229"/>
<feComposite in2="hardAlpha" operator="out"/>
<feColorMatrix type="matrix" values="0 0 0 0 0 0 0 0 0 0.321569 0 0 0 0 0.705882 0 0 0 0.12 0"/>
<feBlend mode="normal" in2="BackgroundImageFix" result="effect1_dropShadow_5263_4670"/>
<feBlend mode="normal" in="SourceGraphic" in2="effect1_dropShadow_5263_4670" result="shape"/>
</filter>
<filter id="filter5_d_5263_4670" x="27.0003" y="78" width="196.492" height="196.492" filterUnits="userSpaceOnUse" color-interpolation-filters="sRGB">
<feFlood flood-opacity="0" result="BackgroundImageFix"/>
<feColorMatrix in="SourceAlpha" type="matrix" values="0 0 0 0 0 0 0 0 0 0 0 0 0 0 0 0 0 0 127 0" result="hardAlpha"/>
<feOffset dy="9.04097"/>
<feGaussianBlur stdDeviation="27.1229"/>
<feComposite in2="hardAlpha" operator="out"/>
<feColorMatrix type="matrix" values="0 0 0 0 0 0 0 0 0 0.321569 0 0 0 0 0.705882 0 0 0 0.12 0"/>
<feBlend mode="normal" in2="BackgroundImageFix" result="effect1_dropShadow_5263_4670"/>
<feBlend mode="normal" in="SourceGraphic" in2="effect1_dropShadow_5263_4670" result="shape"/>
</filter>
<filter id="filter6_d_5263_4670" x="246" y="-1.52588e-05" width="216.492" height="216.492" filterUnits="userSpaceOnUse" color-interpolation-filters="sRGB">
<feFlood flood-opacity="0" result="BackgroundImageFix"/>
<feColorMatrix in="SourceAlpha" type="matrix" values="0 0 0 0 0 0 0 0 0 0 0 0 0 0 0 0 0 0 127 0" result="hardAlpha"/>
<feOffset dy="9.04097"/>
<feGaussianBlur stdDeviation="27.1229"/>
<feComposite in2="hardAlpha" operator="out"/>
<feColorMatrix type="matrix" values="0 0 0 0 0 0 0 0 0 0.321569 0 0 0 0 0.705882 0 0 0 0.12 0"/>
<feBlend mode="normal" in2="BackgroundImageFix" result="effect1_dropShadow_5263_4670"/>
<feBlend mode="normal" in="SourceGraphic" in2="effect1_dropShadow_5263_4670" result="shape"/>
</filter>
<filter id="filter7_d_5263_4670" x="209" y="20" width="196.492" height="196.492" filterUnits="userSpaceOnUse" color-interpolation-filters="sRGB">
<feFlood flood-opacity="0" result="BackgroundImageFix"/>
<feColorMatrix in="SourceAlpha" type="matrix" values="0 0 0 0 0 0 0 0 0 0 0 0 0 0 0 0 0 0 127 0" result="hardAlpha"/>
<feOffset dy="9.04097"/>
<feGaussianBlur stdDeviation="27.1229"/>
<feComposite in2="hardAlpha" operator="out"/>
<feColorMatrix type="matrix" values="0 0 0 0 0 0 0 0 0 0.321569 0 0 0 0 0.705882 0 0 0 0.12 0"/>
<feBlend mode="normal" in2="BackgroundImageFix" result="effect1_dropShadow_5263_4670"/>
<feBlend mode="normal" in="SourceGraphic" in2="effect1_dropShadow_5263_4670" result="shape"/>
</filter>
<filter id="filter8_d_5263_4670" x="137" y="44" width="216.492" height="216.492" filterUnits="userSpaceOnUse" color-interpolation-filters="sRGB">
<feFlood flood-opacity="0" result="BackgroundImageFix"/>
<feColorMatrix in="SourceAlpha" type="matrix" values="0 0 0 0 0 0 0 0 0 0 0 0 0 0 0 0 0 0 127 0" result="hardAlpha"/>
<feOffset dy="9.04097"/>
<feGaussianBlur stdDeviation="27.1229"/>
<feComposite in2="hardAlpha" operator="out"/>
<feColorMatrix type="matrix" values="0 0 0 0 0 0 0 0 0 0.321569 0 0 0 0 0.705882 0 0 0 0.12 0"/>
<feBlend mode="normal" in2="BackgroundImageFix" result="effect1_dropShadow_5263_4670"/>
<feBlend mode="normal" in="SourceGraphic" in2="effect1_dropShadow_5263_4670" result="shape"/>
</filter>
</defs>
</svg>
