<svg width="28" height="29" viewBox="0 0 28 29" fill="none" xmlns="http://www.w3.org/2000/svg">
<path d="M2.33301 15.3745H22.1663" stroke="#1377BC" stroke-width="1.5" stroke-miterlimit="10" stroke-linecap="round" stroke-linejoin="round"/>
<path d="M22.1663 12.6562V20.9979C22.1313 24.3229 21.2213 25.1629 17.7563 25.1629H6.74304C3.21971 25.1629 2.33301 24.2879 2.33301 20.8112V12.6562C2.33301 9.50623 3.06801 8.49123 5.83301 8.3279C6.11301 8.31623 6.41638 8.30457 6.74304 8.30457H17.7563C21.2796 8.30457 22.1663 9.17956 22.1663 12.6562Z" stroke="#1377BC" stroke-width="1.5" stroke-linecap="round" stroke-linejoin="round"/>
<path d="M25.6663 8.51451V16.6695C25.6663 19.8195 24.9313 20.8345 22.1663 20.9978V12.6562C22.1663 9.17951 21.2796 8.30451 17.7563 8.30451H6.74304C6.41638 8.30451 6.11301 8.31618 5.83301 8.32784C5.86801 5.00284 6.77804 4.16284 10.243 4.16284H21.2563C24.7796 4.16284 25.6663 5.03784 25.6663 8.51451Z" stroke="#1377BC" stroke-width="1.5" stroke-linecap="round" stroke-linejoin="round"/>
<path d="M6.125 21.4412H8.13163" stroke="#1377BC" stroke-width="1.5" stroke-miterlimit="10" stroke-linecap="round" stroke-linejoin="round"/>
<path d="M10.6279 21.4412H14.6413" stroke="#1377BC" stroke-width="1.5" stroke-miterlimit="10" stroke-linecap="round" stroke-linejoin="round"/>
</svg>
