<svg width="25" height="25" viewBox="0 0 25 25" fill="none" xmlns="http://www.w3.org/2000/svg">
<g clip-path="url(#clip0_514_1395)">
<path d="M12.2183 24.168C18.8457 24.168 24.2183 18.7954 24.2183 12.168C24.2183 5.54055 18.8457 0.167969 12.2183 0.167969C5.59084 0.167969 0.218262 5.54055 0.218262 12.168C0.218262 18.7954 5.59084 24.168 12.2183 24.168Z" fill="#F0F0F0"/>
<path d="M7.00098 16.3408L8.04446 23.4206C9.3444 23.903 10.7505 24.1669 12.2184 24.1669C17.3779 24.1669 21.7764 20.9104 23.4719 16.3408H7.00098Z" fill="black"/>
<path d="M7.00098 7.99457L8.04446 0.914754C9.3444 0.432363 10.7505 0.168457 12.2184 0.168457C17.3779 0.168457 21.7764 3.42496 23.4719 7.99457H7.00098Z" fill="#6DA544"/>
<path d="M0.21875 12.1682C0.21875 17.3277 3.4753 21.7263 8.04486 23.4218V0.914551C3.4753 2.61007 0.21875 7.00858 0.21875 12.1682Z" fill="#A2001D"/>
</g>
<defs>
<clipPath id="clip0_514_1395">
<rect width="24" height="24" fill="white" transform="translate(0.218262 0.167969)"/>
</clipPath>
</defs>
</svg>
