<svg width="25" height="25" viewBox="0 0 25 25" fill="none" xmlns="http://www.w3.org/2000/svg">
<g clip-path="url(#clip0_514_1419)">
<path d="M12.3071 24.168C18.9345 24.168 24.3071 18.7954 24.3071 12.168C24.3071 5.54055 18.9345 0.167969 12.3071 0.167969C5.67971 0.167969 0.307129 5.54055 0.307129 12.168C0.307129 18.7954 5.67971 24.168 12.3071 24.168Z" fill="#6DA544"/>
<path d="M12.3076 4.86426L22.2206 12.1686L12.3076 19.4729L2.39453 12.1686L12.3076 4.86426Z" fill="#FFDA44"/>
<path d="M12.3072 16.3419C14.6124 16.3419 16.4811 14.4732 16.4811 12.168C16.4811 9.86286 14.6124 7.99414 12.3072 7.99414C10.002 7.99414 8.1333 9.86286 8.1333 12.168C8.1333 14.4732 10.002 16.3419 12.3072 16.3419Z" fill="#F0F0F0"/>
<path d="M10.2204 11.9072C9.49456 11.9072 8.79411 12.0176 8.13477 12.2225C8.16397 14.5025 10.0204 16.342 12.3073 16.342C13.7215 16.342 14.9704 15.6381 15.7254 14.5623C14.4337 12.9452 12.4461 11.9072 10.2204 11.9072Z" fill="#0052B4"/>
<path d="M16.4038 12.9677C16.454 12.7088 16.4812 12.4416 16.4812 12.168C16.4812 9.86281 14.6124 7.99414 12.3073 7.99414C10.5872 7.99414 9.11068 9.03481 8.47168 10.5207C9.03652 10.4036 9.62133 10.342 10.2204 10.342C12.6446 10.3419 14.8377 11.3496 16.4038 12.9677Z" fill="#0052B4"/>
</g>
<defs>
<clipPath id="clip0_514_1419">
<rect width="24" height="24" fill="white" transform="translate(0.307129 0.167969)"/>
</clipPath>
</defs>
</svg>
