<svg width="25" height="25" viewBox="0 0 25 25" fill="none" xmlns="http://www.w3.org/2000/svg">
<g clip-path="url(#clip0_514_1445)">
<path d="M12.2332 24.4883C18.8606 24.4883 24.2332 19.1157 24.2332 12.4883C24.2332 5.86086 18.8606 0.488281 12.2332 0.488281C5.60574 0.488281 0.233154 5.86086 0.233154 12.4883C0.233154 19.1157 5.60574 24.4883 12.2332 24.4883Z" fill="#F0F0F0"/>
<path d="M2.71372 5.18115C1.77111 6.40754 1.06034 7.82106 0.646484 9.35664H6.8892L2.71372 5.18115Z" fill="#0052B4"/>
<path d="M23.82 9.35708C23.4062 7.82155 22.6954 6.40803 21.7528 5.18164L17.5774 9.35708H23.82Z" fill="#0052B4"/>
<path d="M0.646484 15.6187C1.06039 17.1542 1.77116 18.5677 2.71372 19.794L6.88907 15.6187H0.646484Z" fill="#0052B4"/>
<path d="M19.5385 2.96816C18.3121 2.02555 16.8986 1.31479 15.363 0.900879V7.14355L19.5385 2.96816Z" fill="#0052B4"/>
<path d="M4.927 22.0059C6.15339 22.9485 7.56691 23.6593 9.10244 24.0732V17.8306L4.927 22.0059Z" fill="#0052B4"/>
<path d="M9.10239 0.900879C7.56686 1.31478 6.15335 2.02555 4.927 2.96811L9.10239 7.1435V0.900879Z" fill="#0052B4"/>
<path d="M15.363 24.0732C16.8986 23.6593 18.3121 22.9485 19.5384 22.006L15.363 17.8306V24.0732Z" fill="#0052B4"/>
<path d="M17.5774 15.6187L21.7528 19.7941C22.6954 18.5677 23.4062 17.1542 23.82 15.6187H17.5774Z" fill="#0052B4"/>
<path d="M24.1316 10.9231H13.7985H13.7984V0.589859C13.286 0.523156 12.7636 0.488281 12.2332 0.488281C11.7026 0.488281 11.1803 0.523156 10.668 0.589859V10.923V10.923H0.334732C0.268029 11.4354 0.233154 11.9578 0.233154 12.4883C0.233154 13.0189 0.268029 13.5411 0.334732 14.0535H10.6679H10.6679V24.3867C11.1803 24.4534 11.7026 24.4883 12.2332 24.4883C12.7636 24.4883 13.286 24.4535 13.7984 24.3867V14.0536V14.0535H24.1316C24.1983 13.5411 24.2332 13.0189 24.2332 12.4883C24.2332 11.9578 24.1983 11.4354 24.1316 10.9231Z" fill="#D80027"/>
<path d="M15.3635 15.6197L20.7183 20.9745C20.9646 20.7283 21.1996 20.4709 21.4237 20.2041L16.8392 15.6196H15.3635V15.6197Z" fill="#D80027"/>
<path d="M9.10266 15.6196H9.10257L3.7478 20.9744C3.99399 21.2207 4.25138 21.4556 4.51819 21.6798L9.10266 17.0952V15.6196Z" fill="#D80027"/>
<path d="M9.10242 9.35739V9.3573L3.74761 4.00244C3.50133 4.24863 3.26639 4.50602 3.04224 4.77283L7.62675 9.35735H9.10242V9.35739Z" fill="#D80027"/>
<path d="M15.3635 9.35857L20.7184 4.00367C20.4722 3.75739 20.2148 3.52245 19.948 3.29834L15.3635 7.88286V9.35857Z" fill="#D80027"/>
</g>
<defs>
<clipPath id="clip0_514_1445">
<rect width="24" height="24" fill="white" transform="translate(0.233154 0.488281)"/>
</clipPath>
</defs>
</svg>
