<svg width="25" height="25" viewBox="0 0 25 25" fill="none" xmlns="http://www.w3.org/2000/svg">
<g clip-path="url(#clip0_514_1487)">
<path d="M12.3223 24.4883C18.9497 24.4883 24.3223 19.1157 24.3223 12.4883C24.3223 5.86086 18.9497 0.488281 12.3223 0.488281C5.69485 0.488281 0.322266 5.86086 0.322266 12.4883C0.322266 19.1157 5.69485 24.4883 12.3223 24.4883Z" fill="#F0F0F0"/>
<path d="M12.3225 0.487305C7.56493 0.487305 3.45418 3.25598 1.51318 7.26993H23.1317C21.1907 3.25598 17.0799 0.487305 12.3225 0.487305Z" fill="#FF9811"/>
<path d="M12.3225 24.4877C17.0799 24.4877 21.1907 21.719 23.1317 17.7051H1.51318C3.45418 21.719 7.56493 24.4877 12.3225 24.4877Z" fill="#6DA544"/>
<path d="M12.3228 16.6613C14.628 16.6613 16.4967 14.7925 16.4967 12.4874C16.4967 10.1822 14.628 8.31348 12.3228 8.31348C10.0176 8.31348 8.14893 10.1822 8.14893 12.4874C8.14893 14.7925 10.0176 16.6613 12.3228 16.6613Z" fill="#0052B4"/>
<path d="M12.3226 15.0963C13.7633 15.0963 14.9312 13.9283 14.9312 12.4876C14.9312 11.0469 13.7633 9.87891 12.3226 9.87891C10.8818 9.87891 9.71387 11.0469 9.71387 12.4876C9.71387 13.9283 10.8818 15.0963 12.3226 15.0963Z" fill="#F0F0F0"/>
<path d="M12.3225 9.26904L13.1273 11.0943L15.1103 10.8786L13.932 12.4881L15.1103 14.0977L13.1273 13.882L12.3225 15.7072L11.5177 13.882L9.53467 14.0976L10.7129 12.4881L9.53467 10.8786L11.5177 11.0943L12.3225 9.26904Z" fill="#0052B4"/>
</g>
<defs>
<clipPath id="clip0_514_1487">
<rect width="24" height="24" fill="white" transform="translate(0.322266 0.488281)"/>
</clipPath>
</defs>
</svg>
