<svg width="25" height="25" viewBox="0 0 25 25" fill="none" xmlns="http://www.w3.org/2000/svg">
<g clip-path="url(#clip0_514_1534)">
<path d="M12.7778 24.7944C19.4052 24.7944 24.7778 19.4219 24.7778 12.7944C24.7778 6.16702 19.4052 0.794434 12.7778 0.794434C6.15041 0.794434 0.777832 6.16702 0.777832 12.7944C0.777832 19.4219 6.15041 24.7944 12.7778 24.7944Z" fill="#F0F0F0"/>
<path d="M12.7783 0.794434V12.7944L4.29297 21.2797C6.46455 23.4513 9.46455 24.7944 12.7783 24.7944C19.4057 24.7944 24.7783 19.4218 24.7783 12.7944C24.7783 6.16706 12.7783 0.794434 12.7783 0.794434Z" fill="#D80027"/>
<path d="M12.7783 0.794434C9.46455 0.794434 6.46455 2.13759 4.29297 4.30912C7.23719 7.25334 8.28236 8.29856 12.7783 12.7944H24.7783C24.7783 6.16706 19.4057 0.794434 12.7783 0.794434Z" fill="#0052B4"/>
<path d="M8.99506 12.7942L7.52956 12.1049L8.30998 10.6855L6.71857 10.99L6.51692 9.38232L5.40842 10.5647L4.29996 9.38232L4.09826 10.99L2.5069 10.6855L3.28732 12.1049L1.82178 12.7942L3.28732 13.4836L2.5069 14.9029L4.0984 14.5985L4.29992 16.2061L5.40842 15.0237L6.51692 16.2061L6.71857 14.5985L8.30989 14.9029L7.52951 13.4836L8.99506 12.7942Z" fill="#FFDA44"/>
<path d="M3.97865 5.48975L4.46634 6.17145L5.26532 5.91837L4.76761 6.59281L5.25529 7.27451L4.46001 7.00962L3.96234 7.68401L3.96857 6.84589L3.17334 6.58095L3.97246 6.32787L3.97865 5.48975Z" fill="#FFDA44"/>
<path d="M3.97865 17.9038L4.46634 18.5855L5.26532 18.3324L4.76761 19.0069L5.25529 19.6886L4.46001 19.4237L3.96234 20.0981L3.96857 19.26L3.17334 18.995L3.97246 18.7419L3.97865 17.9038Z" fill="#FFDA44"/>
<path d="M10.9341 11.6978L10.4465 12.3795L9.64746 12.1263L10.1452 12.8008L9.65749 13.4825L10.4528 13.2176L10.9505 13.892L10.9442 13.0539L11.7394 12.789L10.9404 12.5359L10.9341 11.6978Z" fill="#FFDA44"/>
</g>
<defs>
<clipPath id="clip0_514_1534">
<rect width="24" height="24" fill="white" transform="translate(0.777832 0.794434)"/>
</clipPath>
</defs>
</svg>
