<svg width="41" height="41" viewBox="0 0 41 41" fill="none" xmlns="http://www.w3.org/2000/svg">
<g id="TD" clip-path="url(#clip0_68_1274)">
<path id="Vector" d="M20.9721 0.905762C18.5257 0.905762 16.1822 1.34584 14.0156 2.14975L13.146 20.9058L14.0155 39.6618C16.1822 40.4658 18.5257 40.9058 20.9721 40.9058C23.4185 40.9058 25.762 40.4658 27.9286 39.6618L28.7982 20.9058L27.9286 2.14975C25.762 1.34584 23.4185 0.905762 20.9721 0.905762Z" fill="#FFDA44"/>
<path id="Vector_2" d="M40.9722 20.9074C40.9722 12.3081 35.5447 4.97723 27.9287 2.15137V39.6635C35.5447 36.8375 40.9722 29.5067 40.9722 20.9074Z" fill="#D80027"/>
<path id="Vector_3" d="M14.015 39.6634V2.15137C6.39894 4.97723 0.971436 12.3081 0.971436 20.9074C0.971436 29.5067 6.39894 36.8375 14.015 39.6634Z" fill="#0052B4"/>
</g>
<defs>
<clipPath id="clip0_68_1274">
<rect width="40" height="40" fill="white" transform="translate(0.971436 0.906738)"/>
</clipPath>
</defs>
</svg>
