<svg width="25" height="25" viewBox="0 0 25 25" fill="none" xmlns="http://www.w3.org/2000/svg">
<g clip-path="url(#clip0_514_1553)">
<path d="M12.3223 24.7944C18.9497 24.7944 24.3223 19.4219 24.3223 12.7944C24.3223 6.16702 18.9497 0.794434 12.3223 0.794434C5.69485 0.794434 0.322266 6.16702 0.322266 12.7944C0.322266 19.4219 5.69485 24.7944 12.3223 24.7944Z" fill="#F0F0F0"/>
<path d="M23.5764 8.62061H1.06914C0.586754 9.92059 0.322754 11.3267 0.322754 12.7945C0.322754 14.2623 0.586754 15.6684 1.06914 16.9684H23.5764C24.0588 15.6684 24.3228 14.2623 24.3228 12.7945C24.3228 11.3267 24.0588 9.92059 23.5764 8.62061Z" fill="#0052B4"/>
<path d="M12.3237 0.793945C8.68658 0.793945 5.42769 2.41226 3.22705 4.96784H21.4202C19.2196 2.41226 15.9607 0.793945 12.3237 0.793945Z" fill="#D80027"/>
<path d="M21.4193 20.6206H3.22607C5.42672 23.1762 8.68561 24.7945 12.3227 24.7945C15.9598 24.7945 19.2187 23.1762 21.4193 20.6206Z" fill="#D80027"/>
</g>
<defs>
<clipPath id="clip0_514_1553">
<rect width="24" height="24" fill="white" transform="translate(0.322266 0.794434)"/>
</clipPath>
</defs>
</svg>
