<svg width="27" height="27" viewBox="0 0 27 27" fill="none" xmlns="http://www.w3.org/2000/svg">
<path d="M10.1381 24.6011H16.7353C22.233 24.6011 24.4321 22.4021 24.4321 16.9044V10.3072C24.4321 4.80954 22.233 2.61047 16.7353 2.61047H10.1381C4.64047 2.61047 2.44141 4.80954 2.44141 10.3072V16.9044C2.44141 22.4021 4.64047 24.6011 10.1381 24.6011Z" stroke="#1377BC" stroke-width="1.41369" stroke-linecap="round" stroke-linejoin="round"/>
<path d="M17.285 20.7527C18.4945 20.7527 19.4841 19.7631 19.4841 18.5536V8.65781C19.4841 7.44832 18.4945 6.45874 17.285 6.45874C16.0755 6.45874 15.0859 7.44832 15.0859 8.65781V18.5536C15.0859 19.7631 16.0645 20.7527 17.285 20.7527Z" stroke="#1377BC" stroke-width="1.41369" stroke-linecap="round" stroke-linejoin="round"/>
<path d="M9.58774 20.7527C10.7972 20.7527 11.7868 19.7631 11.7868 18.5537V14.7053C11.7868 13.4958 10.7972 12.5062 9.58774 12.5062C8.37825 12.5062 7.38867 13.4958 7.38867 14.7053V18.5537C7.38867 19.7631 8.36726 20.7527 9.58774 20.7527Z" stroke="#1377BC" stroke-width="1.41369" stroke-linecap="round" stroke-linejoin="round"/>
</svg>
