<svg width="28" height="28" viewBox="0 0 28 28" fill="none" xmlns="http://www.w3.org/2000/svg">
<path d="M20.4634 15.7423C19.9933 16.2012 19.7247 16.8615 19.7919 17.5666C19.8926 18.7753 21.0006 19.6595 22.2093 19.6595H24.3357V20.9913C24.3357 23.308 22.4443 25.1994 20.1276 25.1994H8.81268C9.15963 24.9084 9.46181 24.5503 9.69684 24.1474C10.1109 23.4759 10.346 22.6813 10.346 21.8419C10.346 19.3685 8.34263 17.3652 5.86924 17.3652C4.81721 17.3652 3.84352 17.7345 3.07129 18.35V13.4592C3.07129 11.1425 4.96271 9.2511 7.27941 9.2511H20.1276C22.4443 9.2511 24.3357 11.1425 24.3357 13.4592V15.0709H22.075C21.4482 15.0709 20.8775 15.317 20.4634 15.7423Z" stroke="#1377BC" stroke-width="1.43895" stroke-linecap="round" stroke-linejoin="round"/>
<path d="M3.07129 14.4665V9.35186C3.07129 8.02003 3.88829 6.83365 5.13058 6.3636L14.0169 3.00605C15.4047 2.48004 16.8932 3.50972 16.8932 4.99823V9.2511" stroke="#1377BC" stroke-width="1.43895" stroke-linecap="round" stroke-linejoin="round"/>
<path d="M25.5197 16.2124V18.518C25.5197 19.1336 25.0273 19.6372 24.4005 19.6595H22.2069C20.9982 19.6595 19.8902 18.7754 19.7895 17.5667C19.7224 16.8616 19.991 16.2013 20.461 15.7424C20.8751 15.3171 21.4459 15.0709 22.0726 15.0709H24.4005C25.0273 15.0933 25.5197 15.5969 25.5197 16.2124Z" stroke="#1377BC" stroke-width="1.43895" stroke-linecap="round" stroke-linejoin="round"/>
<path d="M8.10742 14.0076H15.9417" stroke="#1377BC" stroke-width="1.43895" stroke-linecap="round" stroke-linejoin="round"/>
<path d="M10.346 21.8418C10.346 22.6812 10.111 23.4758 9.6969 24.1473C9.46187 24.5502 9.15969 24.9084 8.81274 25.1994C8.02932 25.9045 6.99967 26.3186 5.8693 26.3186C4.2353 26.3186 2.81394 25.4456 2.0417 24.1473C1.62761 23.4758 1.39258 22.6812 1.39258 21.8418C1.39258 20.4317 2.0417 19.167 3.07135 18.35C3.84358 17.7344 4.81727 17.3651 5.8693 17.3651C8.34269 17.3651 10.346 19.3684 10.346 21.8418Z" stroke="#1377BC" stroke-width="1.43895" stroke-miterlimit="10" stroke-linecap="round" stroke-linejoin="round"/>
<path d="M7.53925 21.8188H4.2041" stroke="#1377BC" stroke-width="1.43895" stroke-miterlimit="10" stroke-linecap="round" stroke-linejoin="round"/>
<path d="M5.87012 20.1849V23.5313" stroke="#1377BC" stroke-width="1.43895" stroke-miterlimit="10" stroke-linecap="round" stroke-linejoin="round"/>
</svg>
