<svg width="29" height="28" viewBox="0 0 29 28" fill="none" xmlns="http://www.w3.org/2000/svg">
<path d="M2.6875 11.6665H26.0208" stroke="#1377BC" stroke-width="1.5" stroke-miterlimit="10" stroke-linecap="round" stroke-linejoin="round"/>
<path d="M13.8272 23.9164H7.86551C3.72384 23.9164 2.67383 22.8897 2.67383 18.7947V9.20473C2.67383 5.49473 3.5372 4.30473 6.7922 4.11806C7.11886 4.1064 7.48051 4.09473 7.86551 4.09473H20.8272C24.9688 4.09473 26.0188 5.12139 26.0188 9.21639V14.3614" stroke="#1377BC" stroke-width="1.5" stroke-linecap="round" stroke-linejoin="round"/>
<path d="M7.35449 18.6665H12.0212" stroke="#1377BC" stroke-width="1.5" stroke-miterlimit="10" stroke-linecap="round" stroke-linejoin="round"/>
<path d="M26.0208 21.0002C26.0208 21.8752 25.7758 22.7035 25.3441 23.4035C24.5391 24.7568 23.0575 25.6668 21.3542 25.6668C19.6508 25.6668 18.1692 24.7568 17.3642 23.4035C16.9325 22.7035 16.6875 21.8752 16.6875 21.0002C16.6875 18.4218 18.7758 16.3335 21.3542 16.3335C23.9325 16.3335 26.0208 18.4218 26.0208 21.0002Z" stroke="#1377BC" stroke-width="1.5" stroke-miterlimit="10" stroke-linecap="round" stroke-linejoin="round"/>
<path d="M19.5361 20.9993L20.6911 22.1543L23.1761 19.856" stroke="#1377BC" stroke-width="1.5" stroke-linecap="round" stroke-linejoin="round"/>
</svg>
