<svg width="29" height="28" viewBox="0 0 29 28" fill="none" xmlns="http://www.w3.org/2000/svg">
<path d="M8.20583 22.9835C9.1625 21.9568 10.6208 22.0385 11.4608 23.1585L12.6392 24.7335C13.5842 25.9818 15.1125 25.9818 16.0575 24.7335L17.2358 23.1585C18.0758 22.0385 19.5342 21.9568 20.4908 22.9835C22.5675 25.2002 24.2592 24.4652 24.2592 21.3618V8.2135C24.2708 3.51183 23.1742 2.3335 18.7642 2.3335H9.94417C5.53417 2.3335 4.4375 3.51183 4.4375 8.2135V21.3502C4.4375 24.4652 6.14083 25.1885 8.20583 22.9835Z" stroke="#1377BC" stroke-width="1.5" stroke-linecap="round" stroke-linejoin="round"/>
<path d="M9.79958 12.8333H9.81006" stroke="#1377BC" stroke-width="2" stroke-linecap="round" stroke-linejoin="round"/>
<path d="M13.0693 12.8335H19.486" stroke="#1377BC" stroke-width="1.5" stroke-linecap="round" stroke-linejoin="round"/>
<path d="M9.79958 8.16683H9.81006" stroke="#1377BC" stroke-width="2" stroke-linecap="round" stroke-linejoin="round"/>
<path d="M13.0693 8.1665H19.486" stroke="#1377BC" stroke-width="1.5" stroke-linecap="round" stroke-linejoin="round"/>
</svg>
