<svg width="29" height="28" viewBox="0 0 29 28" fill="none" xmlns="http://www.w3.org/2000/svg">
<path d="M2.6875 10.5002V7.5835C2.6875 4.6785 5.0325 2.3335 7.9375 2.3335H10.8542" stroke="#1377BC" stroke-width="1.5" stroke-linecap="round" stroke-linejoin="round"/>
<path d="M17.8545 2.3335H20.7712C23.6762 2.3335 26.0212 4.6785 26.0212 7.5835V10.5002" stroke="#1377BC" stroke-width="1.5" stroke-linecap="round" stroke-linejoin="round"/>
<path d="M26.0215 18.6665V20.4165C26.0215 23.3215 23.6765 25.6665 20.7715 25.6665H19.0215" stroke="#1377BC" stroke-width="1.5" stroke-linecap="round" stroke-linejoin="round"/>
<path d="M10.8542 25.6667H7.9375C5.0325 25.6667 2.6875 23.3217 2.6875 20.4167V17.5" stroke="#1377BC" stroke-width="1.5" stroke-linecap="round" stroke-linejoin="round"/>
<path d="M20.1882 11.0835V16.9168C20.1882 19.2502 19.0215 20.4168 16.6882 20.4168H12.0215C9.68815 20.4168 8.52148 19.2502 8.52148 16.9168V11.0835C8.52148 8.75016 9.68815 7.5835 12.0215 7.5835H16.6882C19.0215 7.5835 20.1882 8.75016 20.1882 11.0835Z" stroke="#1377BC" stroke-width="1.5" stroke-linecap="round" stroke-linejoin="round"/>
<path d="M22.5208 14H6.1875" stroke="#1377BC" stroke-width="1.5" stroke-linecap="round" stroke-linejoin="round"/>
</svg>
