<svg width="32" height="32" viewBox="0 0 32 32" fill="none" xmlns="http://www.w3.org/2000/svg">
<path d="M29.3332 13.3332H2.6665M14.6665 18.6665H7.99984M2.6665 10.9332L2.6665 21.0665C2.6665 22.56 2.6665 23.3067 2.95715 23.8771C3.21282 24.3789 3.62076 24.7869 4.12253 25.0425C4.69296 25.3332 5.4397 25.3332 6.93317 25.3332L25.0665 25.3332C26.56 25.3332 27.3067 25.3332 27.8771 25.0425C28.3789 24.7869 28.7869 24.3789 29.0425 23.8771C29.3332 23.3067 29.3332 22.56 29.3332 21.0665V10.9332C29.3332 9.4397 29.3332 8.69296 29.0425 8.12253C28.7869 7.62077 28.3789 7.21282 27.8771 6.95716C27.3067 6.66651 26.56 6.66651 25.0665 6.66651L6.93317 6.6665C5.4397 6.6665 4.69296 6.6665 4.12253 6.95715C3.62076 7.21282 3.21282 7.62076 2.95715 8.12253C2.6665 8.69296 2.6665 9.4397 2.6665 10.9332Z" stroke="#1377BC" stroke-width="2" stroke-linecap="round" stroke-linejoin="round"/>
</svg>
