<svg width="32" height="32" viewBox="0 0 32 32" fill="none" xmlns="http://www.w3.org/2000/svg">
<path d="M28 15.9998L12 15.9998M28 7.99984L12 7.99984M28 23.9998L12 23.9998M6.66667 15.9998C6.66667 16.7362 6.06971 17.3332 5.33333 17.3332C4.59695 17.3332 4 16.7362 4 15.9998C4 15.2635 4.59695 14.6665 5.33333 14.6665C6.06971 14.6665 6.66667 15.2635 6.66667 15.9998ZM6.66667 7.99984C6.66667 8.73622 6.06971 9.33317 5.33333 9.33317C4.59695 9.33317 4 8.73622 4 7.99984C4 7.26346 4.59695 6.6665 5.33333 6.6665C6.06971 6.6665 6.66667 7.26346 6.66667 7.99984ZM6.66667 23.9998C6.66667 24.7362 6.06971 25.3332 5.33333 25.3332C4.59695 25.3332 4 24.7362 4 23.9998C4 23.2635 4.59695 22.6665 5.33333 22.6665C6.06971 22.6665 6.66667 23.2635 6.66667 23.9998Z" stroke="#1377BC" stroke-width="2" stroke-linecap="round" stroke-linejoin="round"/>
</svg>
