<svg width="32" height="32" viewBox="0 0 32 32" fill="none" xmlns="http://www.w3.org/2000/svg">
<path d="M12.0002 14L14.6668 16.6667L20.6668 10.6667M26.6668 28V10.4C26.6668 8.15979 26.6668 7.03969 26.2309 6.18404C25.8474 5.43139 25.2354 4.81947 24.4828 4.43597C23.6271 4 22.507 4 20.2668 4H11.7335C9.49329 4 8.37318 4 7.51753 4.43597C6.76489 4.81947 6.15296 5.43139 5.76947 6.18404C5.3335 7.03969 5.3335 8.15979 5.3335 10.4V28L9.00016 25.3333L12.3335 28L16.0002 25.3333L19.6668 28L23.0002 25.3333L26.6668 28Z" stroke="#1377BC" stroke-width="2" stroke-linecap="round" stroke-linejoin="round"/>
</svg>
