<svg width="32" height="32" viewBox="0 0 32 32" fill="none" xmlns="http://www.w3.org/2000/svg">
<path d="M21.3334 28.0002V26.4002C21.3334 24.16 21.3334 23.0398 20.8974 22.1842C20.5139 21.4316 19.902 20.8196 19.1494 20.4361C18.2937 20.0002 17.1736 20.0002 14.9334 20.0002H9.06675C6.82654 20.0002 5.70643 20.0002 4.85079 20.4361C4.09814 20.8196 3.48622 21.4316 3.10272 22.1842C2.66675 23.0398 2.66675 24.16 2.66675 26.4002V28.0002M21.3334 8.00016L24.0001 10.6668L29.3334 5.3335M16.6667 10.0002C16.6667 12.5775 14.5774 14.6668 12.0001 14.6668C9.42275 14.6668 7.33341 12.5775 7.33341 10.0002C7.33341 7.42283 9.42275 5.3335 12.0001 5.3335C14.5774 5.3335 16.6667 7.42283 16.6667 10.0002Z" stroke="#1377BC" stroke-width="2" stroke-linecap="round" stroke-linejoin="round"/>
</svg>
