<svg width="15" height="16" viewBox="0 0 15 16" fill="none" xmlns="http://www.w3.org/2000/svg">
<g clip-path="url(#clip0_451_8179)">
<path d="M5.65921 12.35H9.39461M4.16505 2.07764H10.8888C11.2374 2.07764 11.4118 2.07764 11.545 2.14549C11.6621 2.20518 11.7573 2.30042 11.817 2.41756C11.8849 2.55074 11.8849 2.72507 11.8849 3.07374V4.36527C11.8849 4.66982 11.8849 4.82209 11.8505 4.96539C11.82 5.09244 11.7697 5.2139 11.7014 5.3253C11.6244 5.45096 11.5167 5.55863 11.3014 5.77398L9.4764 7.59895C9.22985 7.8455 9.10658 7.96877 9.06039 8.11092C9.01977 8.23596 9.01977 8.37065 9.06039 8.49569C9.10658 8.63784 9.22985 8.76111 9.4764 9.00766L11.3014 10.8326C11.5167 11.048 11.6244 11.1557 11.7014 11.2813C11.7697 11.3927 11.82 11.5142 11.8505 11.6412C11.8849 11.7845 11.8849 11.9368 11.8849 12.2413V13.5329C11.8849 13.8815 11.8849 14.0559 11.817 14.189C11.7573 14.3062 11.6621 14.4014 11.545 14.4611C11.4118 14.529 11.2374 14.529 10.8888 14.529H4.16505C3.81638 14.529 3.64205 14.529 3.50887 14.4611C3.39173 14.4014 3.29649 14.3062 3.2368 14.189C3.16895 14.0559 3.16895 13.8815 3.16895 13.5329V12.2413C3.16895 11.9368 3.16895 11.7845 3.20335 11.6412C3.23385 11.5142 3.28416 11.3927 3.35243 11.2813C3.42943 11.1557 3.5371 11.048 3.75245 10.8326L5.57743 9.00766C5.82397 8.76111 5.94725 8.63784 5.99343 8.49569C6.03406 8.37065 6.03406 8.23596 5.99343 8.11092C5.94725 7.96877 5.82397 7.84549 5.57743 7.59895L3.75245 5.77398C3.5371 5.55863 3.42943 5.45095 3.35243 5.3253C3.28416 5.2139 3.23385 5.09244 3.20335 4.96539C3.16895 4.82209 3.16895 4.66982 3.16895 4.36527V3.07374C3.16895 2.72507 3.16895 2.55074 3.2368 2.41756C3.29649 2.30042 3.39173 2.20518 3.50887 2.14549C3.64205 2.07764 3.81638 2.07764 4.16505 2.07764Z" stroke="#515151" stroke-width="1.24513" stroke-linecap="round" stroke-linejoin="round"/>
</g>
<defs>
<clipPath id="clip0_451_8179">
<rect width="14.9416" height="14.9416" fill="white" transform="translate(0.0561523 0.832031)"/>
</clipPath>
</defs>
</svg>
