<svg width="59" height="59" viewBox="0 0 59 59" fill="none" xmlns="http://www.w3.org/2000/svg">
<path d="M14.8139 17.4167H26.8973C27.5382 17.4167 28.1529 17.6713 28.6061 18.1245C29.0593 18.5777 29.3139 19.1924 29.3139 19.8333C29.3139 20.4743 29.0593 21.089 28.6061 21.5422C28.1529 21.9954 27.5382 22.25 26.8973 22.25H14.8139C14.173 22.25 13.5583 21.9954 13.1051 21.5422C12.6519 21.089 12.3973 20.4743 12.3973 19.8333C12.3973 19.1924 12.6519 18.5777 13.1051 18.1245C13.5583 17.6713 14.173 17.4167 14.8139 17.4167ZM31.7306 36.75H43.8139C44.4549 36.75 45.0696 37.0046 45.5228 37.4578C45.976 37.911 46.2306 38.5257 46.2306 39.1667C46.2306 39.8076 45.976 40.4223 45.5228 40.8755C45.0696 41.3287 44.4549 41.5833 43.8139 41.5833H31.7306C31.0897 41.5833 30.475 41.3287 30.0218 40.8755C29.5686 40.4223 29.3139 39.8076 29.3139 39.1667C29.3139 38.5257 29.5686 37.911 30.0218 37.4578C30.475 37.0046 31.0897 36.75 31.7306 36.75ZM14.8139 27.0833H43.8139C44.4549 27.0833 45.0696 27.3379 45.5228 27.7911C45.976 28.2444 46.2306 28.859 46.2306 29.5C46.2306 30.1409 45.976 30.7556 45.5228 31.2088C45.0696 31.662 44.4549 31.9167 43.8139 31.9167H14.8139C14.173 31.9167 13.5583 31.662 13.1051 31.2088C12.6519 30.7556 12.3973 30.1409 12.3973 29.5C12.3973 28.859 12.6519 28.2444 13.1051 27.7911C13.5583 27.3379 14.173 27.0833 14.8139 27.0833Z" fill="#008EDB"/>
</svg>
