<svg width="340" height="127" viewBox="0 0 340 127" fill="none" xmlns="http://www.w3.org/2000/svg">
<path d="M178.479 83.9566C178.479 91.7566 175.479 97.5566 169.379 101.357C164.379 104.557 157.779 106.157 149.479 106.157H108.879C107.979 106.157 107.479 105.657 107.479 104.557V96.2566C107.479 92.1566 109.479 90.0566 113.479 90.0566H150.979C156.579 90.0566 159.379 88.2566 159.379 84.6566C159.379 81.3566 156.579 79.0566 150.979 77.7566L127.279 72.3566C112.979 69.1566 105.779 61.9566 105.779 51.0566C105.779 43.6566 108.479 37.8566 113.779 33.7566C118.679 29.9566 124.879 28.0566 132.479 28.0566H174.679C175.679 28.0566 176.179 28.5566 176.179 29.6566V37.2566C176.179 41.8566 173.879 44.1566 169.179 44.1566H133.279C128.179 44.1566 125.679 45.9566 125.679 49.5566C125.679 52.3566 128.179 54.6566 133.279 56.4566L157.779 61.8566C171.579 64.8566 178.479 72.1566 178.479 83.9566Z" fill="white"/>
<path d="M233.579 53.8564C233.579 54.3564 233.379 55.0564 232.879 56.0564L201.079 124.056C200.379 125.756 198.879 126.556 196.679 126.556H188.379C186.179 126.556 185.179 125.556 185.179 123.456C185.179 122.856 185.379 122.056 185.879 121.156L196.779 99.3564L175.579 56.1564C175.079 55.2564 174.879 54.4564 174.879 53.9564C174.879 51.8564 175.979 50.8564 178.079 50.8564H186.979C189.079 50.8564 190.479 51.6564 191.279 53.2564L204.779 82.4564L217.879 53.2564C218.579 51.6564 219.979 50.8564 221.879 50.8564H230.379C232.579 50.7564 233.579 51.7564 233.579 53.8564Z" fill="white"/>
<path d="M250.779 102.857C250.779 105.057 249.679 106.057 247.579 106.057H238.779C236.579 106.057 235.579 104.957 235.579 102.857V35.157C235.579 30.357 237.879 27.957 242.579 27.957H247.679C249.879 27.957 250.879 29.057 250.879 31.157V102.857H250.779ZM286.879 102.957C286.879 105.057 285.779 106.057 283.679 106.057H273.079C271.379 106.057 269.979 105.357 268.979 104.057L251.179 81.157C249.579 79.057 248.779 77.157 248.779 75.557C248.779 73.657 249.679 71.857 251.379 70.057L269.179 52.157C270.379 50.957 271.679 50.357 273.079 50.357H283.479C285.679 50.357 286.679 51.357 286.679 53.457C286.679 54.457 286.279 55.357 285.479 56.057L265.279 75.357L285.779 100.257C286.479 101.357 286.879 102.157 286.879 102.957Z" fill="white"/>
<path d="M339.479 98.9566C339.479 102.557 337.679 104.657 333.979 105.357C328.579 106.357 321.98 106.857 314.18 106.857C297.08 106.857 288.479 100.957 288.479 89.0566C288.479 80.9566 293.68 75.5566 304.18 72.9566C304.78 72.8566 308.879 72.0566 316.379 70.6566C320.479 69.9566 323.08 69.2566 324.18 68.7566C324.08 68.6566 324.079 68.6566 323.979 68.6566C323.979 66.3566 322.879 64.8566 320.579 64.1566C319.279 63.7566 317.18 63.5566 314.28 63.5566C309.48 63.5566 305.279 63.7566 301.579 64.1566L296.079 64.7566C295.979 64.6566 295.779 64.6566 295.579 64.8566C293.879 64.8566 292.879 63.8566 292.579 61.9566C292.479 61.7566 292.479 60.1566 292.479 57.1566C292.379 53.3566 295.479 51.0566 301.579 50.2566C302.579 50.1566 307.079 50.0566 315.079 50.0566C331.379 50.0566 339.579 57.0566 339.579 71.0566V98.9566H339.479ZM324.18 92.9566V82.0566L307.78 85.1566C305.18 85.6566 303.879 86.8566 303.879 88.9566C303.879 91.9566 307.579 93.4566 314.879 93.4566C318.779 93.5566 321.88 93.3566 324.18 92.9566Z" fill="white"/>
<path d="M87.6797 0.0566406L61.2797 61.7566L0.179688 34.1566L87.6797 0.0566406Z" fill="white"/>
<path d="M33.6797 121.056L83.5797 70.5562L0.179688 34.1562L33.6797 121.056Z" fill="#1377BC"/>
<path d="M0.179688 34.1562L53.1797 77.6562L83.5797 70.5562L0.179688 34.1562Z" fill="#29AAE1"/>
<path d="M59.1797 69.4562C61.3888 69.4562 63.1797 68.6056 63.1797 67.5562C63.1797 66.5069 61.3888 65.6562 59.1797 65.6562C56.9705 65.6562 55.1797 66.5069 55.1797 67.5562C55.1797 68.6056 56.9705 69.4562 59.1797 69.4562Z" fill="white"/>
<path d="M68.9799 77.6562L36.8799 108.356" stroke="#29AAE1" stroke-width="0.25" stroke-miterlimit="10"/>
<path d="M62.4797 16.1562L21.1797 32.6563" stroke="#29AAE1" stroke-width="0.25" stroke-miterlimit="10"/>
</svg>
